<?xml version="1.0" encoding="utf-8"?>
<!-- Generator: Adobe Illustrator 27.5.0, SVG Export Plug-In . SVG Version: 6.00 Build 0)  -->
<svg version="1.1" id="Capa_1" xmlns="http://www.w3.org/2000/svg" xmlns:xlink="http://www.w3.org/1999/xlink" x="0px" y="0px"
	 viewBox="0 0 458.87 342.131" style="enable-background:new 0 0 458.87 342.131;" xml:space="preserve">
<rect x="0" style="fill:#F5825E;" width="458.87" height="342.131"/>
<g>
	<path style="fill:#E0C1A2;" d="M418.777,270.62c0,9.603-84.195,17.388-188.057,17.388c-103.859,0-188.055-7.785-188.055-17.388
		c0-9.604,84.196-17.389,188.055-17.389C334.583,253.23,418.777,261.016,418.777,270.62z"/>
	<g>
		<path style="fill:#2C295B;" d="M312.132,215.211V102.979c0-2.863-2.305-5.183-5.148-5.183H120.807
			c-2.843,0-5.148,2.32-5.148,5.183v112.231H312.132z"/>
		<rect x="122.404" y="104.331" style="fill:#00B1DE;" width="182.561" height="104"/>
		<g style="opacity:0.3;">
			<polygon style="fill:#ABDFF9;" points="282.127,104.331 261.146,104.331 149.557,208.331 172.793,208.331 			"/>
			<path style="fill:#ABDFF9;" d="M252.465,104.331h-28.563c0,0-101.393,90.649-101.498,90.65v13.35h16.331L252.465,104.331z"/>
		</g>
		<polygon style="fill:#9FD1E9;" points="246.08,258.432 181.993,258.432 186.069,229.763 242.566,229.763 		"/>
		<polygon style="fill:#ABDFF9;" points="256.427,273.049 170.417,273.049 181.999,257.871 246.156,257.871 		"/>
		<path style="fill:#ABDFF9;" d="M115.659,214.866v18.145c0,2.863,2.305,5.184,5.148,5.184h186.178c2.843,0,5.148-2.32,5.148-5.184
			v-18.145H115.659z"/>
	</g>
	<g>
		<g>
			<g>
				<path style="fill:#2C295B;" d="M350.719,271.569c0,1.736-1.408,3.143-3.143,3.143H236.508c-1.736,0-3.144-1.407-3.144-3.143
					v-79.797c0-1.736,1.408-3.143,3.144-3.143h111.068c1.735,0,3.143,1.408,3.143,3.143V271.569z"/>
				<rect x="236.006" y="193.605" style="fill:#00B1DE;" width="112.073" height="74.395"/>
			</g>
			<path style="fill:#ABDFF9;" d="M301.859,271.405c0,0.434-0.352,0.785-0.786,0.785H283.01c-0.434,0-0.786-0.351-0.786-0.785l0,0
				c0-0.434,0.353-0.786,0.786-0.786h18.064C301.507,270.619,301.859,270.971,301.859,271.405L301.859,271.405z"/>
			<path style="fill:#ABDFF9;" d="M298.067,191.335c0,0.411-0.332,0.742-0.742,0.742h-10.566c-0.409,0-0.742-0.331-0.742-0.742l0,0
				c0-0.41,0.333-0.742,0.742-0.742h10.566C297.734,190.593,298.067,190.924,298.067,191.335L298.067,191.335z"/>
		</g>
		<g style="opacity:0.3;">
			<polygon style="fill:#ABDFF9;" points="347.024,193.605 333.434,193.605 253.594,268 268.645,268 			"/>
			<path style="fill:#ABDFF9;" d="M327.812,193.605h-18.501c0,0-73.236,65.748-73.305,65.748V268h10.578L327.812,193.605z"/>
		</g>
	</g>
	<g>
		<g>
			<path style="fill:#ABDFF9;" d="M161.632,139.903c0,0.542-0.439,0.982-0.982,0.982H81.781c-0.543,0-0.981-0.44-0.981-0.982V82.306
				c0-0.543,0.439-0.982,0.981-0.982h78.869c0.543,0,0.982,0.439,0.982,0.982V139.903z"/>
			<path style="fill:#2C295B;" d="M161.632,91.142v-8.836c0-0.543-0.439-0.982-0.982-0.982H81.781c-0.543,0-0.981,0.439-0.981,0.982
				v8.836H161.632z"/>
			<path style="fill:#00B1DE;" d="M127.924,86.56c0,0.542-0.439,0.982-0.981,0.982H86.526c-0.543,0-0.981-0.44-0.981-0.982v-0.655
				c0-0.542,0.439-0.982,0.981-0.982h40.416c0.542,0,0.981,0.44,0.981,0.982V86.56z"/>
			<path style="fill:#00B1DE;" d="M147.315,86.233c0,0.994-0.806,1.8-1.8,1.8c-0.993,0-1.8-0.806-1.8-1.8c0-0.994,0.807-1.8,1.8-1.8
				C146.509,84.433,147.315,85.239,147.315,86.233z"/>
			<path style="fill:#00B1DE;" d="M151.774,86.233c0,0.994-0.806,1.8-1.8,1.8c-0.994,0-1.799-0.806-1.799-1.8
				c0-0.994,0.805-1.8,1.799-1.8C150.968,84.433,151.774,85.239,151.774,86.233z"/>
			<path style="fill:#00B1DE;" d="M156.232,86.233c0,0.994-0.806,1.8-1.799,1.8c-0.995,0-1.801-0.806-1.801-1.8
				c0-0.994,0.806-1.8,1.801-1.8C155.426,84.433,156.232,85.239,156.232,86.233z"/>
		</g>
		<g>
			<g>
				<rect x="89.035" y="93.775" style="fill:#2D419A;" width="3.599" height="25.692"/>
				<rect x="107.168" y="93.775" style="fill:#FFD145;" width="3.599" height="25.692"/>
				<rect x="95.079" y="99.638" style="fill:#00B1DE;" width="3.599" height="19.83"/>
				<rect x="101.124" y="102.463" style="fill:#F5825E;" width="3.599" height="17.004"/>
				<rect x="113.212" y="102.463" style="fill:#2C295B;" width="3.6" height="17.004"/>
				<rect x="119.257" y="105.194" style="fill:#0086CB;" width="3.599" height="14.273"/>
			</g>
			<g>
				<rect x="128.539" y="98.105" style="fill:#2C295B;" width="24.86" height="1.555"/>
				<rect x="128.539" y="101.997" style="fill:#2C295B;" width="24.86" height="1.555"/>
				<rect x="128.539" y="105.887" style="fill:#2C295B;" width="24.86" height="1.555"/>
				<rect x="128.539" y="109.778" style="fill:#2C295B;" width="24.86" height="1.555"/>
				<rect x="128.539" y="113.669" style="fill:#2C295B;" width="24.86" height="1.555"/>
				<rect x="128.539" y="117.56" style="fill:#2C295B;" width="24.86" height="1.555"/>
			</g>
			<rect x="89.035" y="123.427" style="fill:#2C295B;" width="64.364" height="13.377"/>
		</g>
	</g>
	<g>
		<g>
			<path style="fill:#ABDFF9;" d="M267.87,198.306c0,0.542-0.439,0.982-0.982,0.982h-78.869c-0.543,0-0.982-0.44-0.982-0.982
				v-57.597c0-0.543,0.439-0.982,0.982-0.982h78.869c0.543,0,0.982,0.439,0.982,0.982V198.306z"/>
			<path style="fill:#2C295B;" d="M267.87,149.544v-8.836c0-0.543-0.439-0.982-0.982-0.982h-78.869
				c-0.543,0-0.982,0.439-0.982,0.982v8.836H267.87z"/>
			<path style="fill:#00B1DE;" d="M234.162,144.962c0,0.542-0.439,0.982-0.982,0.982h-40.416c-0.542,0-0.982-0.44-0.982-0.982
				v-0.655c0-0.542,0.439-0.982,0.982-0.982h40.416c0.542,0,0.982,0.44,0.982,0.982V144.962z"/>
			<path style="fill:#00B1DE;" d="M253.552,144.635c0,0.994-0.806,1.8-1.8,1.8c-0.994,0-1.8-0.806-1.8-1.8s0.806-1.8,1.8-1.8
				C252.746,142.835,253.552,143.641,253.552,144.635z"/>
			<path style="fill:#00B1DE;" d="M258.011,144.635c0,0.994-0.805,1.8-1.8,1.8c-0.994,0-1.799-0.806-1.799-1.8s0.805-1.8,1.799-1.8
				C257.206,142.835,258.011,143.641,258.011,144.635z"/>
			<path style="fill:#00B1DE;" d="M262.47,144.635c0,0.994-0.806,1.8-1.799,1.8c-0.994,0-1.801-0.806-1.801-1.8s0.807-1.8,1.801-1.8
				C261.664,142.835,262.47,143.641,262.47,144.635z"/>
		</g>
		<g>
			<g>
				<path style="fill:#2C295B;" d="M236.224,187.51c-0.442,0-0.877-0.21-1.148-0.6c-0.439-0.633-0.282-1.503,0.351-1.942
					l15.476-10.736l-15.446-10.134c-0.645-0.423-0.824-1.288-0.401-1.933c0.423-0.644,1.289-0.824,1.933-0.401l17.175,11.268
					c0.388,0.254,0.624,0.685,0.63,1.149c0.006,0.463-0.219,0.9-0.6,1.165l-17.176,11.915
					C236.776,187.429,236.499,187.51,236.224,187.51z"/>
			</g>
			<g>
				<path style="fill:#2C295B;" d="M217.878,187.164c-0.275,0-0.552-0.081-0.795-0.249L199.908,175
					c-0.381-0.264-0.606-0.701-0.6-1.165c0.006-0.464,0.242-0.895,0.63-1.149l17.175-11.269c0.645-0.423,1.51-0.243,1.933,0.401
					c0.423,0.645,0.243,1.51-0.401,1.933l-15.446,10.134l15.476,10.736c0.633,0.439,0.791,1.309,0.351,1.942
					C218.754,186.954,218.319,187.164,217.878,187.164z"/>
			</g>
			<g>
				<path style="fill:#2C295B;" d="M221.863,195.69c-0.109,0-0.22-0.013-0.331-0.04c-0.749-0.182-1.208-0.937-1.026-1.686
					l9.614-39.543c0.182-0.749,0.938-1.208,1.686-1.026c0.749,0.182,1.208,0.937,1.026,1.686l-9.614,39.543
					C223.063,195.262,222.492,195.69,221.863,195.69z"/>
			</g>
		</g>
	</g>
	<g>
		<path style="fill:#2D419A;" d="M102.148,263.091c0,0.587-0.475,1.063-1.062,1.063H59.362c-0.586,0-1.062-0.476-1.062-1.063
			L56.174,212.6c0-0.588,0.476-1.064,1.063-1.064h45.974c0.588,0,1.064,0.476,1.064,1.064L102.148,263.091z"/>
		<path style="fill:#ABDFF9;" d="M53.133,168.167c0,0-4.333,4.776-13.041-5.083c0,0,11.331-2.238,13.298,4.423L53.133,168.167z"/>
		<path style="fill:#ABDFF9;" d="M53.612,167.489c0,0,6.448,0.072,5.144-13.017c0,0-9.349,6.784-5.803,12.756L53.612,167.489z"/>
		<path style="fill:#00B1DE;" d="M79.66,136.596c0,0-5.917,2.565-9.786-10.006c0,0,11.246,2.631,10.293,9.511L79.66,136.596z"/>
		<path style="fill:#00B1DE;" d="M80.753,135.777c0,0,5.846,2.723,10.053-9.739c0,0-11.313,2.328-10.545,9.23L80.753,135.777z"/>
		<path style="fill:#00B1DE;" d="M79.501,147.191c0,0-6.292,2.729-10.407-10.641c0,0,11.959,2.798,10.946,10.115L79.501,147.191z"/>
		<path style="fill:#00B1DE;" d="M80.664,146.321c0,0,6.217,2.895,10.691-10.358c0,0-12.032,2.476-11.214,9.816L80.664,146.321z"/>
		<path style="fill:#00B1DE;" d="M79.301,159.23c0,0-6.957,3.018-11.508-11.767c0,0,13.226,3.094,12.104,11.185L79.301,159.23z"/>
		<path style="fill:#00B1DE;" d="M80.588,158.267c0,0,6.873,3.202,11.821-11.453c0,0-13.305,2.738-12.4,10.855L80.588,158.267z"/>
		<path style="fill:#00B1DE;" d="M79.299,171.911c0,0-6.974,3.025-11.533-11.791c0,0,13.254,3.101,12.13,11.208L79.299,171.911z"/>
		<path style="fill:#00B1DE;" d="M80.588,170.947c0,0,6.889,3.209,11.847-11.477c0,0-13.333,2.743-12.427,10.878L80.588,170.947z"/>
		<path style="fill:#00B1DE;" d="M78.207,181.373c0,0-5.01,2.173-8.287-8.472c0,0,9.523,2.228,8.716,8.053L78.207,181.373z"/>
		<path style="fill:#00B1DE;" d="M79.175,180.992c0,0,4.6,2.942,9.531-7.043c0,0-9.757,0.683-9.888,6.561L79.175,180.992z"/>
		<path style="fill:#00B1DE;" d="M78.547,189.12c0,0,3.778,2.417,7.83-5.786c0,0-8.015,0.561-8.123,5.39L78.547,189.12z"/>
		<path style="fill:#00B1DE;" d="M78.393,189.12c0,0-3.779,2.417-7.83-5.786c0,0,8.015,0.561,8.122,5.39L78.393,189.12z"/>
		<path style="fill:#ABDFF9;" d="M57.65,178.271c0,0-4.979,5.488-14.985-5.84c0,0,13.021-2.572,15.28,5.083L57.65,178.271z"/>
		<path style="fill:#ABDFF9;" d="M58.2,177.494c0,0,7.41,0.081,5.911-14.957c0,0-10.741,7.794-6.668,14.657L58.2,177.494z"/>
		<path style="fill:#ABDFF9;" d="M61.646,189.146c0,0-5.567,6.136-16.753-6.529c0,0,14.557-2.876,17.083,5.681L61.646,189.146z"/>
		<path style="fill:#ABDFF9;" d="M62.259,188.277c0,0,8.283,0.09,6.607-16.722c0,0-12.008,8.714-7.454,16.387L62.259,188.277z"/>
		<path style="fill:#ABDFF9;" d="M65.159,201.739c0,0-6.035,5.676-16.184-7.833c0,0,14.738-1.715,16.58,7.014L65.159,201.739z"/>
		<path style="fill:#ABDFF9;" d="M65.84,200.92c0,0,8.25,0.746,7.909-16.146c0,0-12.66,7.738-8.727,15.746L65.84,200.92z"/>
		<g>
			<path style="fill:#2C295B;" d="M103.311,170.534c0,0,4.53,4.59,12.816-5.626c0,0-11.415-1.76-13.101,4.977L103.311,170.534z"/>
			<path style="fill:#2C295B;" d="M102.804,169.878c0,0-6.439,0.342-5.687-12.789c0,0,9.625,6.385,6.333,12.501L102.804,169.878z"/>
			<path style="fill:#2C295B;" d="M99.222,180.821c0,0,5.206,5.274,14.727-6.465c0,0-13.117-2.023-15.054,5.719L99.222,180.821z"/>
			<path style="fill:#2C295B;" d="M98.64,180.066c0,0-7.4,0.393-6.534-14.696c0,0,11.059,7.337,7.278,14.365L98.64,180.066z"/>
			<path style="fill:#2C295B;" d="M95.688,191.854c0,0,5.82,5.896,16.464-7.227c0,0-14.664-2.262-16.829,6.393L95.688,191.854z"/>
			<path style="fill:#2C295B;" d="M95.038,191.01c0,0-8.272,0.439-7.304-16.43c0,0,12.363,8.203,8.136,16.059L95.038,191.01z"/>
			<path style="fill:#2C295B;" d="M92.707,204.582c0,0,6.268,5.418,15.841-8.507c0,0-14.797-1.094-16.271,7.705L92.707,204.582z"/>
			<path style="fill:#2C295B;" d="M91.992,203.793c0,0-8.212,1.092-8.581-15.8c0,0,12.973,7.2,9.381,15.364L91.992,203.793z"/>
			<path style="fill:none;stroke:#2D419A;stroke-miterlimit:10;" d="M88.519,222.753c0,0,2.321-24.873,17.855-60.699"/>
			<path style="fill:#2C295B;" d="M105.6,162.355c0,0-4.211-4.883,6.636-12.323c0,0,0.839,11.52-6.012,12.66L105.6,162.355z"/>
		</g>
		<path style="fill:none;stroke:#2D419A;stroke-miterlimit:10;" d="M75.91,220.837c0,0,6.319-72.459,3.662-93.187"/>
		<path style="fill:#00B1DE;" d="M79.684,128.154c0,0,5.73-2.956-1.552-13.91c0,0-5.082,10.372,0.848,13.988L79.684,128.154z"/>
		<path style="fill:none;stroke:#2D419A;stroke-miterlimit:10;" d="M70.106,219.718c0,0-3.363-24.753-20.389-59.895"/>
	</g>
	<g>
		<path style="fill:#2D419A;" d="M400.363,268.226c0,0.587-0.475,1.063-1.062,1.063h-41.723c-0.586,0-1.062-0.476-1.062-1.063
			l-2.126-50.491c0-0.588,0.475-1.064,1.063-1.064h45.974c0.588,0,1.064,0.476,1.064,1.064L400.363,268.226z"/>
		<path style="fill:#ABDFF9;" d="M351.349,173.301c0,0-4.333,4.776-13.041-5.082c0,0,11.331-2.238,13.298,4.423L351.349,173.301z"/>
		<path style="fill:#ABDFF9;" d="M351.828,172.623c0,0,6.448,0.072,5.144-13.017c0,0-9.349,6.784-5.803,12.756L351.828,172.623z"/>
		<path style="fill:#00B1DE;" d="M377.876,141.73c0,0-5.917,2.565-9.786-10.006c0,0,11.247,2.631,10.293,9.511L377.876,141.73z"/>
		<path style="fill:#00B1DE;" d="M378.969,140.912c0,0,5.846,2.723,10.053-9.739c0,0-11.314,2.328-10.544,9.23L378.969,140.912z"/>
		<path style="fill:#00B1DE;" d="M377.717,152.325c0,0-6.293,2.729-10.407-10.641c0,0,11.96,2.798,10.946,10.115L377.717,152.325z"
			/>
		<path style="fill:#00B1DE;" d="M378.88,151.455c0,0,6.217,2.895,10.691-10.358c0,0-12.032,2.476-11.214,9.816L378.88,151.455z"/>
		<path style="fill:#00B1DE;" d="M377.517,164.364c0,0-6.958,3.018-11.508-11.767c0,0,13.226,3.094,12.104,11.185L377.517,164.364z"
			/>
		<path style="fill:#00B1DE;" d="M378.804,163.401c0,0,6.874,3.202,11.821-11.453c0,0-13.305,2.738-12.4,10.855L378.804,163.401z"/>
		<path style="fill:#00B1DE;" d="M377.515,177.045c0,0-6.974,3.025-11.533-11.791c0,0,13.254,3.101,12.13,11.208L377.515,177.045z"
			/>
		<path style="fill:#00B1DE;" d="M378.804,176.081c0,0,6.889,3.208,11.847-11.477c0,0-13.333,2.743-12.427,10.878L378.804,176.081z"
			/>
		<path style="fill:#00B1DE;" d="M376.423,186.507c0,0-5.01,2.173-8.287-8.472c0,0,9.523,2.228,8.716,8.053L376.423,186.507z"/>
		<path style="fill:#00B1DE;" d="M377.391,186.126c0,0,4.6,2.942,9.531-7.043c0,0-9.757,0.683-9.888,6.562L377.391,186.126z"/>
		<path style="fill:#00B1DE;" d="M376.763,194.254c0,0,3.778,2.417,7.83-5.786c0,0-8.015,0.561-8.123,5.39L376.763,194.254z"/>
		<path style="fill:#00B1DE;" d="M376.608,194.254c0,0-3.779,2.417-7.83-5.786c0,0,8.015,0.561,8.122,5.39L376.608,194.254z"/>
		<path style="fill:#ABDFF9;" d="M355.866,183.406c0,0-4.979,5.488-14.985-5.84c0,0,13.021-2.572,15.28,5.082L355.866,183.406z"/>
		<path style="fill:#ABDFF9;" d="M356.416,182.628c0,0,7.41,0.081,5.911-14.957c0,0-10.741,7.794-6.668,14.657L356.416,182.628z"/>
		<path style="fill:#ABDFF9;" d="M359.861,194.281c0,0-5.567,6.136-16.753-6.529c0,0,14.557-2.876,17.083,5.681L359.861,194.281z"/>
		<path style="fill:#ABDFF9;" d="M360.475,193.411c0,0,8.283,0.09,6.607-16.722c0,0-12.008,8.714-7.454,16.387L360.475,193.411z"/>
		<path style="fill:#ABDFF9;" d="M363.375,206.873c0,0-6.035,5.676-16.184-7.833c0,0,14.738-1.715,16.58,7.014L363.375,206.873z"/>
		<path style="fill:#ABDFF9;" d="M364.056,206.054c0,0,8.25,0.746,7.909-16.146c0,0-12.66,7.738-8.728,15.746L364.056,206.054z"/>
		<g>
			<path style="fill:#2C295B;" d="M401.526,175.669c0,0,4.53,4.59,12.816-5.626c0,0-11.415-1.76-13.101,4.977L401.526,175.669z"/>
			<path style="fill:#2C295B;" d="M401.02,175.012c0,0-6.439,0.342-5.686-12.789c0,0,9.625,6.385,6.333,12.501L401.02,175.012z"/>
			<path style="fill:#2C295B;" d="M397.438,185.955c0,0,5.206,5.274,14.727-6.465c0,0-13.117-2.022-15.054,5.719L397.438,185.955z"
				/>
			<path style="fill:#2C295B;" d="M396.856,185.2c0,0-7.399,0.393-6.534-14.696c0,0,11.06,7.337,7.278,14.365L396.856,185.2z"/>
			<path style="fill:#2C295B;" d="M393.904,196.988c0,0,5.82,5.896,16.464-7.227c0,0-14.664-2.262-16.829,6.393L393.904,196.988z"/>
			<path style="fill:#2C295B;" d="M393.253,196.145c0,0-8.272,0.438-7.304-16.43c0,0,12.363,8.203,8.136,16.059L393.253,196.145z"/>
			<path style="fill:#2C295B;" d="M390.922,209.716c0,0,6.268,5.418,15.841-8.507c0,0-14.797-1.094-16.27,7.705L390.922,209.716z"/>
			<path style="fill:#2C295B;" d="M390.208,208.927c0,0-8.212,1.092-8.581-15.8c0,0,12.973,7.2,9.381,15.364L390.208,208.927z"/>
			<path style="fill:none;stroke:#2D419A;stroke-miterlimit:10;" d="M386.734,227.888c0,0,2.321-24.872,17.855-60.699"/>
			<path style="fill:#2C295B;" d="M403.815,167.489c0,0-4.211-4.883,6.636-12.323c0,0,0.839,11.519-6.012,12.66L403.815,167.489z"/>
		</g>
		<path style="fill:none;stroke:#2D419A;stroke-miterlimit:10;" d="M374.126,225.972c0,0,6.319-72.459,3.662-93.188"/>
		<path style="fill:#00B1DE;" d="M377.9,133.288c0,0,5.73-2.956-1.552-13.91c0,0-5.082,10.371,0.848,13.988L377.9,133.288z"/>
		<path style="fill:none;stroke:#2D419A;stroke-miterlimit:10;" d="M368.322,224.852c0,0-3.363-24.753-20.389-59.895"/>
	</g>
	<g>
		<g>
			<path style="fill:#ABDFF9;" d="M414.189,218.707c0,0.566-0.459,1.025-1.025,1.025h-82.376c-0.567,0-1.025-0.459-1.025-1.025
				v-60.158c0-0.567,0.458-1.026,1.025-1.026h82.376c0.567,0,1.025,0.459,1.025,1.026V218.707z"/>
			<path style="fill:#2C295B;" d="M414.189,167.777v-9.228c0-0.567-0.459-1.026-1.025-1.026h-82.376
				c-0.567,0-1.025,0.459-1.025,1.026v9.228H414.189z"/>
			<path style="fill:#00B1DE;" d="M378.982,162.992c0,0.566-0.459,1.025-1.025,1.025h-42.213c-0.567,0-1.025-0.459-1.025-1.025
				v-0.684c0-0.565,0.458-1.025,1.025-1.025h42.213c0.566,0,1.025,0.46,1.025,1.025V162.992z"/>
			<path style="fill:#00B1DE;" d="M399.234,162.65c0,1.038-0.842,1.879-1.88,1.879c-1.038,0-1.879-0.841-1.879-1.879
				c0-1.039,0.842-1.88,1.879-1.88C398.393,160.77,399.234,161.612,399.234,162.65z"/>
			<path style="fill:#00B1DE;" d="M403.891,162.65c0,1.038-0.841,1.879-1.879,1.879c-1.038,0-1.88-0.841-1.88-1.879
				c0-1.039,0.841-1.88,1.88-1.88C403.05,160.77,403.891,161.612,403.891,162.65z"/>
			<path style="fill:#00B1DE;" d="M408.549,162.65c0,1.038-0.842,1.879-1.88,1.879c-1.039,0-1.881-0.841-1.881-1.879
				c0-1.039,0.842-1.88,1.881-1.88C407.707,160.77,408.549,161.612,408.549,162.65z"/>
		</g>
		<g>
			<g>
				<rect x="336.096" y="176.484" style="fill:#2C295B;" width="25.965" height="1.624"/>
				<rect x="336.096" y="172.354" style="fill:#2C295B;" width="25.965" height="1.623"/>
				<rect x="336.096" y="180.614" style="fill:#2C295B;" width="25.965" height="1.624"/>
				<rect x="336.096" y="184.744" style="fill:#2C295B;" width="25.965" height="1.624"/>
				<rect x="336.096" y="188.874" style="fill:#2C295B;" width="25.965" height="1.623"/>
				<rect x="336.096" y="193.004" style="fill:#2C295B;" width="25.965" height="1.623"/>
				<rect x="336.096" y="197.134" style="fill:#2C295B;" width="25.965" height="1.624"/>
			</g>
			<g>
				<rect x="336.096" y="202.891" style="fill:#2C295B;" width="71.759" height="1.623"/>
				<rect x="336.096" y="206.955" style="fill:#2C295B;" width="71.759" height="1.624"/>
				<rect x="336.096" y="211.019" style="fill:#2C295B;" width="71.759" height="1.624"/>
			</g>
			<g>
				<rect x="369.145" y="172.354" style="fill:#2C295B;" width="38.71" height="26.661"/>
				<g>
					<path style="fill:#ABDFF9;" d="M388.5,185.677c0,0.226-8.059-7.33-8.059-7.33c1.992-2.189,4.865-3.563,8.059-3.563V185.677z"/>
					<path style="fill:#F5825E;" d="M399.394,185.677c0,0-4.877,0-10.894,0v-10.894
						C394.517,174.784,399.394,179.661,399.394,185.677z"/>
					<path style="fill:#00B1DE;" d="M377.606,185.689c0,0,4.877,0,10.895,0v10.894C382.483,196.583,377.606,191.706,377.606,185.689
						z"/>
					<path style="fill:#2D419A;" d="M388.5,185.677h-10.895c0-2.822,1.074-5.396,2.836-7.33L388.5,185.677z"/>
					<g>
						<path style="fill:#FFD145;" d="M388.5,185.691c0-0.225,8.058,7.33,8.058,7.33c-1.992,2.19-4.864,3.564-8.058,3.564V185.691z"
							/>
						<path style="fill:#0086CB;" d="M388.5,185.691h10.894c0,2.822-1.074,5.396-2.836,7.33L388.5,185.691z"/>
					</g>
				</g>
			</g>
		</g>
	</g>
	<g>
		<g>
			<path style="fill:#ABDFF9;" d="M348.956,131.378c0,0.566-0.458,1.026-1.025,1.026h-82.376c-0.566,0-1.025-0.46-1.025-1.026V71.22
				c0-0.567,0.459-1.025,1.025-1.025h82.376c0.567,0,1.025,0.459,1.025,1.025V131.378z"/>
			<path style="fill:#2C295B;" d="M348.956,80.448V71.22c0-0.567-0.458-1.025-1.025-1.025h-82.376c-0.566,0-1.025,0.459-1.025,1.025
				v9.229H348.956z"/>
			<path style="fill:#00B1DE;" d="M313.749,75.663c0,0.566-0.458,1.025-1.025,1.025h-42.213c-0.567,0-1.025-0.459-1.025-1.025
				v-0.684c0-0.566,0.458-1.025,1.025-1.025h42.213c0.567,0,1.025,0.459,1.025,1.025V75.663z"/>
			<path style="fill:#00B1DE;" d="M334.003,75.321c0,1.038-0.842,1.88-1.881,1.88c-1.037,0-1.879-0.842-1.879-1.88
				c0-1.038,0.842-1.88,1.879-1.88C333.16,73.441,334.003,74.283,334.003,75.321z"/>
			<path style="fill:#00B1DE;" d="M338.659,75.321c0,1.038-0.841,1.88-1.879,1.88s-1.879-0.842-1.879-1.88
				c0-1.038,0.841-1.88,1.879-1.88S338.659,74.283,338.659,75.321z"/>
			<path style="fill:#00B1DE;" d="M343.316,75.321c0,1.038-0.842,1.88-1.879,1.88c-1.039,0-1.881-0.842-1.881-1.88
				c0-1.038,0.842-1.88,1.881-1.88C342.474,73.441,343.316,74.283,343.316,75.321z"/>
		</g>
		<g>
			<g>
				<rect x="269.711" y="86.476" style="fill:#2C295B;" width="74.174" height="24.269"/>
				<g>
					<g>
						<path style="fill:#ABDFF9;" d="M282.69,98.606c0.133,0.146-9.576,0.015-9.576,0.015c-0.003-2.602,1.048-5.196,3.122-7.088
							L282.69,98.606z"/>
						<path style="fill:#F5825E;" d="M289.763,92.151c0,0-3.167,2.89-7.073,6.455l-6.454-7.073
							C280.142,87.969,286.199,88.246,289.763,92.151z"/>
						<path style="fill:#00B1DE;" d="M275.624,105.067c0,0,3.167-2.89,7.072-6.454l6.455,7.073
							C285.244,109.251,279.188,108.974,275.624,105.067z"/>
						<path style="fill:#2D419A;" d="M282.69,98.606l-7.073,6.454c-1.672-1.832-2.499-4.14-2.502-6.439L282.69,98.606z"/>
						<g>
							<path style="fill:#FFD145;" d="M282.698,98.615c-0.134-0.146,9.575-0.016,9.575-0.016c0.003,2.602-1.047,5.196-3.121,7.088
								L282.698,98.615z"/>
							<path style="fill:#0086CB;" d="M282.698,98.615l7.073-6.455c1.672,1.833,2.499,4.139,2.502,6.439L282.698,98.615z"/>
						</g>
					</g>
					<g>
						<path style="fill:#ABDFF9;" d="M306.803,98.606c-0.147,0.133,0.035-9.575,0.035-9.575c2.602,0.01,5.19,1.074,7.071,3.158
							L306.803,98.606z"/>
						<path style="fill:#F5825E;" d="M313.22,105.713c0,0-2.873-3.182-6.417-7.106l7.106-6.417
							C317.453,96.114,317.145,102.169,313.22,105.713z"/>
						<path style="fill:#00B1DE;" d="M300.379,91.506c0,0,2.872,3.182,6.417,7.106l-7.107,6.417
							C296.146,101.105,296.454,95.05,300.379,91.506z"/>
						<path style="fill:#2D419A;" d="M306.803,98.606l-6.417-7.106c1.841-1.663,4.152-2.478,6.452-2.468L306.803,98.606z"/>
						<g>
							<path style="fill:#FFD145;" d="M306.795,98.614c0.147-0.132-0.035,9.575-0.035,9.575c-2.602-0.011-5.19-1.074-7.072-3.158
								L306.795,98.614z"/>
							<path style="fill:#0086CB;" d="M306.795,98.614l6.417,7.106c-1.842,1.663-4.152,2.478-6.452,2.469L306.795,98.614z"/>
						</g>
					</g>
					<g>
						<path style="fill:#ABDFF9;" d="M330.905,98.604c0,0.198-7.084-6.443-7.084-6.443c1.753-1.924,4.277-3.132,7.084-3.132V98.604z
							"/>
						<path style="fill:#F5825E;" d="M340.481,98.604c0,0-4.287,0-9.576,0v-9.575C336.193,89.029,340.481,93.316,340.481,98.604z"/>
						<path style="fill:#00B1DE;" d="M321.33,98.613c0,0,4.287,0,9.575,0v9.576C325.617,108.189,321.33,103.902,321.33,98.613z"/>
						<path style="fill:#2D419A;" d="M330.905,98.604h-9.575c0-2.481,0.944-4.743,2.491-6.443L330.905,98.604z"/>
						<g>
							<path style="fill:#FFD145;" d="M330.905,98.616c0-0.198,7.083,6.443,7.083,6.443c-1.751,1.924-4.276,3.132-7.083,3.132
								V98.616z"/>
							<path style="fill:#0086CB;" d="M330.905,98.616h9.576c0,2.481-0.944,4.742-2.493,6.443L330.905,98.616z"/>
						</g>
					</g>
				</g>
			</g>
			<g>
				<rect x="270.918" y="114.906" style="fill:#2C295B;" width="71.759" height="1.623"/>
				<rect x="270.918" y="118.97" style="fill:#2C295B;" width="71.759" height="1.624"/>
				<rect x="270.918" y="123.034" style="fill:#2C295B;" width="71.759" height="1.624"/>
			</g>
		</g>
	</g>
	<g>
		<rect x="93.61" y="224.379" style="fill:#FFD145;" width="12.943" height="49.102"/>
		<rect x="140.492" y="254.108" style="fill:#FFD145;" width="12.943" height="19.372"/>
		<rect x="187.374" y="254.108" style="fill:#FFD145;" width="12.943" height="19.372"/>
		<rect x="109.239" y="240.979" style="fill:#00B1DE;" width="12.941" height="32.502"/>
		<rect x="156.406" y="208.39" style="fill:#00B1DE;" width="12.943" height="65.091"/>
		<rect x="124.866" y="234.977" style="fill:#2C295B;" width="12.942" height="38.504"/>
		<rect x="171.746" y="228.688" style="fill:#2C295B;" width="12.944" height="44.792"/>
		
			<polyline style="fill:none;stroke:#FFFFFF;stroke-width:1.8216;stroke-linecap:round;stroke-linejoin:round;stroke-miterlimit:10;" points="
			99.204,209.592 117.12,231.889 131.888,209.546 145.895,235.416 162.332,181.673 176.482,220.409 193.064,227.267 
			196.064,248.564 213.502,225.838 		"/>
		<g>
			<g>
				<path style="fill:#FFFEFE;" d="M103.015,210.689c0,1.893-1.535,3.43-3.43,3.43c-1.894,0-3.431-1.537-3.431-3.43
					c0-1.895,1.537-3.431,3.431-3.431C101.48,207.258,103.015,208.794,103.015,210.689z"/>
			</g>
		</g>
		<g>
			<g>
				<path style="fill:#FFFEFE;" d="M120.255,230.8c0,1.895-1.536,3.431-3.431,3.431c-1.894,0-3.431-1.536-3.431-3.431
					c0-1.893,1.537-3.43,3.431-3.43C118.72,227.37,120.255,228.907,120.255,230.8z"/>
			</g>
		</g>
		<g>
			<g>
				<path style="fill:#FFFEFE;" d="M135.179,210.689c0,1.893-1.535,3.43-3.429,3.43c-1.894,0-3.432-1.537-3.432-3.43
					c0-1.895,1.538-3.431,3.432-3.431C133.644,207.258,135.179,208.794,135.179,210.689z"/>
			</g>
		</g>
		<g>
			<g>
				<path style="fill:#FFFEFE;" d="M148.921,234.23c0,1.894-1.536,3.429-3.431,3.429c-1.894,0-3.431-1.535-3.431-3.429
					c0-1.895,1.537-3.43,3.431-3.43C147.386,230.799,148.921,232.335,148.921,234.23z"/>
			</g>
		</g>
		<g>
			<g>
				<path style="fill:#FFFEFE;" d="M165.536,183.011c0,1.895-1.536,3.429-3.43,3.429c-1.894,0-3.431-1.534-3.431-3.429
					c0-1.894,1.538-3.43,3.431-3.43C164,179.581,165.536,181.117,165.536,183.011z"/>
			</g>
		</g>
		<g>
			<g>
				<path style="fill:#FFFEFE;" d="M180.276,220.409c0,1.893-1.535,3.429-3.43,3.429c-1.894,0-3.431-1.536-3.431-3.429
					c0-1.896,1.537-3.432,3.431-3.432C178.742,216.977,180.276,218.512,180.276,220.409z"/>
			</g>
		</g>
		<g>
			<g>
				<path style="fill:#FFFEFE;" d="M196.268,227.266c0,1.895-1.536,3.43-3.431,3.43c-1.893,0-3.431-1.536-3.431-3.43
					c0-1.895,1.538-3.431,3.431-3.431C194.732,223.835,196.268,225.372,196.268,227.266z"/>
			</g>
		</g>
		<g>
			<g>
				<path style="fill:#FFFEFE;" d="M199.697,246.88c0,1.894-1.534,3.43-3.429,3.43c-1.894,0-3.431-1.537-3.431-3.43
					c0-1.896,1.537-3.432,3.431-3.432C198.163,243.448,199.697,244.985,199.697,246.88z"/>
			</g>
		</g>
		<g>
			<g>
				<path style="fill:#FFFEFE;" d="M216.932,226.143c0,1.893-1.536,3.429-3.43,3.429c-1.893,0-3.431-1.536-3.431-3.429
					c0-1.895,1.538-3.433,3.431-3.433C215.397,222.71,216.932,224.248,216.932,226.143z"/>
			</g>
		</g>
	</g>
</g>
</svg>
