<?xml version="1.0" encoding="utf-8"?>
<!-- Generator: Adobe Illustrator 27.5.0, SVG Export Plug-In . SVG Version: 6.00 Build 0)  -->
<svg version="1.1" xmlns="http://www.w3.org/2000/svg" xmlns:xlink="http://www.w3.org/1999/xlink" x="0px" y="0px"
	 viewBox="0 0 500 500" style="enable-background:new 0 0 500 500;" xml:space="preserve">
<g id="BACKGROUND_1_">
	<rect style="fill:#7CCBBC;" width="500" height="500"/>
</g>
<g id="OBJECTS">
	<g>
		<path style="fill:#7CCBBC;" d="M238.007,109.834v-20.7c0-6.027,4.931-10.959,10.959-10.959h195.197
			c6.027,0,10.959,4.932,10.959,10.959v29.104c0,6.027-4.931,10.959-10.959,10.959H248.966h-28.119L238.007,109.834z"/>
		<path style="fill:#FFFFFF;" d="M246.333,124.957h193.115c6.6,0,12-5.4,12-12V85.935c0-6.6-5.4-12-12-12H246.333
			c-6.6,0-12,5.4-12,12v27.022C234.333,119.557,239.733,124.957,246.333,124.957z"/>
		<polygon style="fill:#FFFFFF;" points="245.292,124.957 217.173,124.957 234.333,105.594 		"/>
		<rect x="234.333" y="90.59" style="fill:none;" width="217.115" height="31.05"/>
		
			<text transform="matrix(1 0 0 1 257.0509 105.7896)" style="fill:#00A099; font-family:'OpenSans-Bold'; font-size:20px; letter-spacing:4;">Contact us!</text>
	</g>
	<g>
		<path style="fill:#7CCBBC;" d="M443.069,385.51H76.543c-6.6,0-12-5.4-12-12V158.676c0-6.6,5.4-12,12-12h366.526
			c6.6,0,12,5.4,12,12V373.51C455.069,380.11,449.669,385.51,443.069,385.51z"/>
		<g>
			<g>
				<defs>
					<path id="SVGID_1_" d="M438.136,380.577H71.611c-6.6,0-12-5.4-12-12V153.743c0-6.6,5.4-12,12-12h366.526c6.6,0,12,5.4,12,12
						v214.834C450.136,375.177,444.736,380.577,438.136,380.577z"/>
				</defs>
				<use xlink:href="#SVGID_1_"  style="overflow:visible;fill:#DEF0E5;"/>
				<clipPath id="SVGID_00000165213949303581829600000005330439002827555230_">
					<use xlink:href="#SVGID_1_"  style="overflow:visible;"/>
				</clipPath>
				<g style="clip-path:url(#SVGID_00000165213949303581829600000005330439002827555230_);">
					<path style="fill:#744A56;" d="M110.161,191.736c-3.928,3.971-6.641,9.549-5.821,15.074c0.377,2.54,1.469,4.939,1.777,7.489
						c0.835,6.921-4.166,13.149-9.465,17.678c-5.299,4.529-11.448,8.601-14.37,14.93c-4.565,9.886,0.208,22.058-3.846,32.164
						c-2.325,5.795-7.599,10.316-13.681,11.728c12.043,1.352,24.242,2.202,36.261,0.651c12.019-1.55,23.939-5.639,33.34-13.286
						c5.945-4.835,10.738-10.961,14.762-17.482c2.354-3.815,4.472-7.806,5.848-12.072c2.269-7.033,2.447-14.548,2.481-21.938
						c0.047-10.256-0.151-20.583-2.184-30.635c-0.651-3.218-1.517-6.465-3.323-9.207c-2.731-4.147-7.462-6.756-12.374-7.482
						C129.224,177.819,117.243,184.576,110.161,191.736z"/>
					<rect x="148.436" y="200.636" style="fill:#DC7B59;" width="24.976" height="24.976"/>
					<path style="fill:none;stroke:#F18F67;stroke-width:18;stroke-miterlimit:10;" d="M185.493,232.999
						c3.99-0.2,8.018,0.386,11.785,1.715c10.512,3.709,13.66,17.151,17.75,26.244c4.526,10.062,7.228,20.857,9.547,31.606
						c8.464,39.241,11.825,79.578,9.974,119.678"/>
					<path style="fill:none;stroke:#F18F67;stroke-width:18;stroke-miterlimit:10;" d="M134.503,232.999
						c-3.99-0.2-8.017,0.386-11.785,1.715c-10.512,3.709-13.659,17.151-17.75,26.244c-4.526,10.062-7.228,20.857-9.547,31.606
						c-8.464,39.241-11.825,79.578-9.974,119.678"/>
					<path style="fill:#D83540;" d="M133.779,223.848c-18.529,0.236-33.029,6.372-41.279,30.554
						c5.25,8.865,19.268,23.424,19.268,23.424L133.779,223.848z"/>
					<path style="fill:#D83540;" d="M188.241,223.848c18.529,0.236,33.029,6.372,41.279,30.554
						c-5.25,8.865-19.268,23.424-19.268,23.424L188.241,223.848z"/>
					<g>
						<defs>
							<path id="SVGID_00000082342697358779213930000005515537705495793075_" d="M213.964,383.944H107.883l4.947-135.877
								c0.504-13.842,11.872-24.803,25.723-24.803h44.741c13.851,0,25.219,10.961,25.723,24.803L213.964,383.944z"/>
						</defs>
						<use xlink:href="#SVGID_00000082342697358779213930000005515537705495793075_"  style="overflow:visible;fill:#F05357;"/>
						<clipPath id="SVGID_00000088846172681417986200000011626710442944620685_">
							<use xlink:href="#SVGID_00000082342697358779213930000005515537705495793075_"  style="overflow:visible;"/>
						</clipPath>
						
							<circle style="clip-path:url(#SVGID_00000088846172681417986200000011626710442944620685_);fill:#D83540;" cx="160.924" cy="223.264" r="27.144"/>
						
							<circle style="clip-path:url(#SVGID_00000088846172681417986200000011626710442944620685_);fill:#DC7B59;" cx="160.924" cy="223.264" r="22.62"/>
					</g>
				</g>
			</g>
			<g>
				<g>
					<path style="fill:#7CCBBC;" d="M318.72,222.315h-27.022c-6.6,0-12-5.4-12-12v-27.022c0-6.6,5.4-12,12-12h27.022
						c6.6,0,12,5.4,12,12v27.022C330.72,216.915,325.32,222.315,318.72,222.315z"/>
				</g>
				<g>
					<path style="fill:#7CCBBC;" d="M318.72,358.738h-27.022c-6.6,0-12-5.4-12-12v-27.022c0-6.6,5.4-12,12-12h27.022
						c6.6,0,12,5.4,12,12v27.022C330.72,353.338,325.32,358.738,318.72,358.738z"/>
				</g>
				<g>
					<path style="fill:#7CCBBC;" d="M318.72,290.827h-27.022c-6.6,0-12-5.4-12-12v-27.022c0-6.6,5.4-12,12-12h27.022
						c6.6,0,12,5.4,12,12v27.022C330.72,285.427,325.32,290.827,318.72,290.827z"/>
				</g>
				<g>
					<path style="fill:#00A099;" d="M316.567,219.315h-27.022c-6.6,0-12-5.4-12-12v-27.022c0-6.6,5.4-12,12-12h27.022
						c6.6,0,12,5.4,12,12v27.022C328.567,213.915,323.167,219.315,316.567,219.315z"/>
				</g>
				<g>
					<path style="fill:#FFFFFF;" d="M297.825,191.85l0.882-0.975c0.728-0.804,1.098-1.843,1.043-2.926
						c-0.054-1.082-0.527-2.079-1.33-2.806l-1.489-1.346c-0.748-0.676-1.713-1.048-2.72-1.048c-1.145,0-2.242,0.486-3.01,1.335
						l-0.883,0.977c-0.113,0.125-0.222,0.261-0.324,0.41l-0.041,0.045c-0.833,0.712-1.542,2.446-1.131,4.569
						c1.896,9.875,10.215,17.4,20.232,18.298c1.314,0.12,2.551-0.152,3.489-0.728c0.375-0.217,0.706-0.484,0.99-0.799l0.883-0.976
						c1.5-1.66,1.371-4.23-0.288-5.731l-1.489-1.347c-0.748-0.676-1.714-1.049-2.721-1.049c-1.145,0-2.242,0.488-3.01,1.336
						l-0.883,0.976c-0.377,0.417-0.658,0.897-0.836,1.427l-0.079,0.236l-0.232-0.092c-3.937-1.554-7.145-4.499-9.033-8.29
						l-0.125-0.25l0.269-0.081C296.694,192.801,297.329,192.399,297.825,191.85z"/>
					<path style="fill:#FFFFFF;" d="M302.779,180.146c0,0.522,0.423,0.945,0.946,0.945c6.63,0,12.023,5.394,12.023,12.024
						c0,0.522,0.423,0.945,0.946,0.945c0.522,0,0.945-0.423,0.945-0.945c0-7.673-6.242-13.915-13.915-13.915
						C303.202,179.2,302.779,179.624,302.779,180.146z"/>
					<path style="fill:#FFFFFF;" d="M302.626,184.774c0,0.522,0.423,0.946,0.945,0.946c4.162,0,7.548,3.386,7.548,7.548
						c0,0.523,0.423,0.946,0.945,0.946c0.522,0,0.946-0.423,0.946-0.946c0-5.204-4.234-9.439-9.439-9.439
						C303.05,183.829,302.626,184.252,302.626,184.774z"/>
				</g>
				<g>
					<path style="fill:#00A099;" d="M316.567,355.738h-27.022c-6.6,0-12-5.4-12-12v-27.022c0-6.6,5.4-12,12-12h27.022
						c6.6,0,12,5.4,12,12v27.022C328.567,350.338,323.167,355.738,316.567,355.738z"/>
				</g>
				<g>
					<rect x="339.95" y="321.729" style="fill:none;" width="143.379" height="32.572"/>
					<text transform="matrix(1 0 0 1 339.9498 330.8496)" style="font-family:'OpenSans-Bold'; font-size:12px; letter-spacing:2;">Website</text>
				</g>
				<g>
					<path style="fill:#FFFFFF;" d="M295.122,319.147c-0.452,0.59-0.866,1.232-1.24,1.914c1.164,0.698,2.47,1.268,3.876,1.682
						c0.045-0.239,0.088-0.477,0.137-0.709c0.479-2.295,1.162-4.232,2.007-5.647c0.295-0.494,0.609-0.924,0.949-1.282
						c-0.724,0.194-1.423,0.48-2.092,0.849C297.398,316.703,296.164,317.792,295.122,319.147z"/>
					<path style="fill:#FFFFFF;" d="M298.453,323.701c-0.275,1.744-0.437,3.661-0.457,5.677h10.345
						c-0.02-2.016-0.18-3.933-0.457-5.677c-1.491,0.359-3.072,0.553-4.715,0.553C301.528,324.255,299.943,324.06,298.453,323.701z"
						/>
					<path style="fill:#FFFFFF;" d="M303.018,335.305c1.699,0,3.335,0.208,4.869,0.592c0.276-1.741,0.437-3.656,0.456-5.669h-10.345
						c0.019,1.986,0.178,3.876,0.444,5.6C299.894,335.489,301.428,335.305,303.018,335.305z"/>
					<path style="fill:#FFFFFF;" d="M291.746,329.378h5.403c0.021-2.093,0.19-4.083,0.484-5.896
						c-1.158-0.335-2.252-0.77-3.264-1.295c-0.284-0.147-0.559-0.302-0.829-0.463C292.457,323.942,291.805,326.562,291.746,329.378z
						"/>
					<path style="fill:#FFFFFF;" d="M293.487,337.778c1.246-0.729,2.635-1.321,4.128-1.742c-0.281-1.789-0.445-3.75-0.467-5.809
						h-5.404C291.802,333.001,292.434,335.584,293.487,337.778z"/>
					<path style="fill:#FFFFFF;" d="M304.091,315.052c-0.312-0.174-0.614-0.258-0.922-0.258c-0.306,0-0.609,0.084-0.919,0.258
						c-0.311,0.176-0.627,0.445-0.94,0.807c-0.621,0.722-1.209,1.813-1.703,3.176c-0.413,1.137-0.76,2.466-1.027,3.931
						c1.445,0.353,2.987,0.546,4.589,0.546c1.602,0,3.144-0.193,4.592-0.545c-0.047-0.257-0.097-0.511-0.147-0.758
						c-0.466-2.229-1.131-4.093-1.906-5.386C305.196,315.958,304.635,315.357,304.091,315.052z"/>
					<path style="fill:#FFFFFF;" d="M298.726,337.398c0.464,2.229,1.13,4.094,1.902,5.386c0.517,0.863,1.077,1.464,1.621,1.769
						c0.31,0.176,0.613,0.259,0.919,0.259c0.308,0,0.61-0.083,0.922-0.259c0.311-0.175,0.626-0.444,0.938-0.806
						c0.622-0.722,1.208-1.812,1.704-3.176c0.414-1.139,0.763-2.469,1.029-3.936c-1.491-0.378-3.084-0.586-4.743-0.586
						c-1.55,0-3.046,0.179-4.454,0.513C298.615,336.846,298.669,337.125,298.726,337.398z"/>
					<path style="fill:#FFFFFF;" d="M294.45,340.974c-0.494-0.642-0.941-1.34-1.344-2.082c-0.53,0.354-1.026,0.735-1.487,1.141
						c1.874,2.114,4.315,3.708,7.089,4.545c-0.12-0.059-0.24-0.119-0.358-0.183C296.874,343.582,295.554,342.412,294.45,340.974z"/>
					<path style="fill:#FFFFFF;" d="M306.439,343.219c-0.296,0.494-0.612,0.924-0.949,1.282c0.721-0.196,1.422-0.481,2.091-0.849
						c1.363-0.75,2.597-1.838,3.637-3.194c0.445-0.579,0.853-1.21,1.221-1.88c-1.156-0.708-2.455-1.289-3.856-1.715
						c-0.044,0.24-0.09,0.477-0.138,0.709C307.964,339.867,307.28,341.805,306.439,343.219z"/>
					<path style="fill:#FFFFFF;" d="M292.483,320.115c0.219,0.169,0.447,0.33,0.68,0.489c1.298-2.351,3.082-4.234,5.187-5.392
						c0.118-0.065,0.238-0.124,0.358-0.184c-2.729,0.823-5.139,2.379-7,4.442C291.956,319.691,292.212,319.908,292.483,320.115z"/>
					<path style="fill:#FFFFFF;" d="M291.141,339.467c0.238-0.21,0.484-0.416,0.738-0.613c0.284-0.218,0.582-0.424,0.886-0.625
						c-1.135-2.333-1.809-5.07-1.868-8.002h-3.15C287.843,333.722,289.096,336.925,291.141,339.467z"/>
					<path style="fill:#FFFFFF;" d="M307.99,315.211c1.475,0.812,2.797,1.982,3.901,3.421c0.468,0.612,0.897,1.273,1.283,1.974
						c0.52-0.354,1.009-0.733,1.458-1.135c-1.86-2.065-4.271-3.62-6.999-4.444C307.753,315.087,307.873,315.146,307.99,315.211z"/>
					<path style="fill:#FFFFFF;" d="M297.741,336.776c-1.131,0.324-2.198,0.746-3.18,1.256c-0.25,0.129-0.495,0.267-0.736,0.408
						c1.238,2.302,2.952,4.119,4.934,5.211c0.671,0.37,1.371,0.655,2.096,0.85c-0.063-0.066-0.127-0.132-0.188-0.202
						c-0.718-0.84-1.338-2.011-1.856-3.44C298.378,339.666,298.017,338.288,297.741,336.776z"/>
					<path style="fill:#FFFFFF;" d="M313.518,321.267c1.169,2.357,1.862,5.132,1.924,8.111h3.151
						c-0.097-3.542-1.384-6.787-3.477-9.346c-0.261,0.232-0.527,0.457-0.806,0.673C314.055,320.899,313.792,321.085,313.518,321.267
						z"/>
					<path style="fill:#FFFFFF;" d="M315.076,339.624c2.119-2.567,3.42-5.831,3.517-9.397h-3.148
						c-0.062,2.996-0.763,5.787-1.944,8.153C314.065,338.765,314.589,339.181,315.076,339.624z"/>
					<path style="fill:#FFFFFF;" d="M290.895,329.378c0.061-2.979,0.757-5.754,1.922-8.11c-0.568-0.382-1.102-0.795-1.594-1.235
						c-2.094,2.559-3.38,5.803-3.476,9.344H290.895z"/>
					<path style="fill:#FFFFFF;" d="M311.818,337.372c0.331,0.17,0.654,0.353,0.965,0.542c1.093-2.224,1.75-4.857,1.812-7.687
						h-5.406c-0.02,2.091-0.188,4.08-0.481,5.894C309.81,336.449,310.853,336.87,311.818,337.372z"/>
					<path style="fill:#FFFFFF;" d="M307.99,344.395c-0.117,0.064-0.237,0.124-0.357,0.183c2.706-0.816,5.101-2.353,6.957-4.392
						c-0.281-0.257-0.575-0.505-0.883-0.743c-0.179-0.137-0.363-0.271-0.552-0.401C311.858,341.375,310.08,343.243,307.99,344.395z"
						/>
					<path style="fill:#FFFFFF;" d="M305.487,315.103c0.061,0.066,0.123,0.132,0.185,0.202c0.72,0.839,1.34,2.011,1.859,3.44
						c0.424,1.171,0.78,2.52,1.052,3.999c1.08-0.319,2.101-0.727,3.044-1.216c0.285-0.149,0.563-0.304,0.834-0.466
						c-1.234-2.254-2.927-4.034-4.88-5.109C306.911,315.585,306.211,315.299,305.487,315.103z"/>
					<path style="fill:#FFFFFF;" d="M309.192,329.378h5.404c-0.061-2.816-0.712-5.439-1.795-7.656
						c-1.235,0.735-2.61,1.332-4.091,1.759C309.001,325.294,309.171,327.285,309.192,329.378z"/>
				</g>
				<g>
					<rect x="339.95" y="185.307" style="fill:none;" width="143.379" height="32.572"/>
					<text transform="matrix(1 0 0 1 339.9498 194.4268)" style="font-family:'OpenSans-Bold'; font-size:12px; letter-spacing:2;">Telephone</text>
				</g>
				<g>
					<path style="fill:#00A099;" d="M316.567,287.827h-27.022c-6.6,0-12-5.4-12-12v-27.022c0-6.6,5.4-12,12-12h27.022
						c6.6,0,12,5.4,12,12v27.022C328.567,282.427,323.167,287.827,316.567,287.827z"/>
				</g>
				<g>
					<rect x="339.95" y="253.818" style="fill:none;" width="143.379" height="32.572"/>
					<text transform="matrix(1 0 0 1 339.9498 262.9385)" style="font-family:'OpenSans-Bold'; font-size:12px; letter-spacing:2;">Email</text>
				</g>
				<g>
					<path style="fill:#FFFFFF;" d="M288.693,270.205l12.728-7.507l-12.785-7.537v14.587
						C288.636,269.905,288.659,270.058,288.693,270.205z"/>
					<path style="fill:#FFFFFF;" d="M301.984,263.031l-13.077,7.709c0.346,0.607,0.993,1.024,1.743,1.024h25.038
						c0.814,0,1.511-0.486,1.829-1.181l-12.809-7.552l-1.362,0.803L301.984,263.031z"/>
					<path style="fill:#FFFFFF;" d="M317.704,269.748V255.37l-12.431,7.328l12.404,7.317
						C317.688,269.927,317.704,269.84,317.704,269.748z"/>
					<path style="fill:#FFFFFF;" d="M290.651,252.424c-1.113,0-2.015,0.9-2.015,2.012v0.062l14.711,8.671l14.357-8.464v-0.269
						c0-1.113-0.902-2.012-2.015-2.012H290.651z"/>
				</g>
			</g>
			<g>
				
					<ellipse transform="matrix(0.9183 -0.396 0.396 0.9183 -44.8748 75.1974)" style="fill:#744A56;" cx="159.695" cy="146.288" rx="55.624" ry="55.624"/>
				<path style="fill:#DC7B59;" d="M209.226,172.669c-2.244,4.893-6.743,7.632-10.049,6.116c-3.306-1.516-4.167-6.712-1.924-11.605
					c2.244-4.893,6.743-7.631,10.049-6.116C210.608,162.579,211.469,167.775,209.226,172.669z"/>
				<path style="fill:#DC7B59;" d="M110.664,172.669c2.244,4.893,6.743,7.632,10.049,6.116c3.306-1.516,4.167-6.712,1.924-11.605
					c-2.244-4.893-6.743-7.631-10.049-6.116C109.281,162.579,108.42,167.775,110.664,172.669z"/>
				<ellipse style="fill:#F18F67;" cx="159.695" cy="158.134" rx="43.045" ry="52.65"/>
				<ellipse style="fill:#580923;" cx="177.024" cy="160.354" rx="4.875" ry="7.215"/>
				<g>
					<g>
						<path style="fill:#580923;" d="M171.843,144.849c5.046-1.621,9.944-1.596,14.485,1.368c1.081,0.705,2.085-1.026,1.01-1.727
							c-4.951-3.23-10.508-3.341-16.026-1.569C170.091,143.313,170.613,145.244,171.843,144.849L171.843,144.849z"/>
					</g>
				</g>
				<path style="fill:#DC7B59;" d="M164.887,176.123c0,1.212-2.324,2.194-5.192,2.194s-5.192-0.982-5.192-2.194
					c0-1.212,2.324-2.194,5.192-2.194S164.887,174.911,164.887,176.123z"/>
				<g>
					<g>
						<path style="fill:#580923;" d="M177.024,155.406c2.015,0,4.03,0,6.045,0c1.287,0,1.289-2,0-2c-2.015,0-4.03,0-6.045,0
							C175.737,153.406,175.735,155.406,177.024,155.406L177.024,155.406z"/>
					</g>
				</g>
				<path style="fill:#580923;" d="M137.591,160.354c0,3.985,2.182,7.215,4.874,7.215c2.692,0,4.875-3.23,4.875-7.215
					s-2.182-7.215-4.875-7.215C139.773,153.139,137.591,156.369,137.591,160.354z"/>
				<g>
					<g>
						<path style="fill:#580923;" d="M148.178,142.921c-5.519-1.773-11.075-1.661-16.026,1.569
							c-1.074,0.701-0.073,2.433,1.009,1.727c4.536-2.96,9.452-2.984,14.485-1.368C148.875,145.244,149.401,143.313,148.178,142.921
							L148.178,142.921z"/>
					</g>
				</g>
				<g>
					<g>
						<path style="fill:#580923;" d="M142.466,153.406c-2.015,0-4.03,0-6.045,0c-1.287,0-1.289,2,0,2c2.015,0,4.03,0,6.045,0
							C143.752,155.406,143.755,153.406,142.466,153.406L142.466,153.406z"/>
					</g>
				</g>
				<g>
					<defs>
						<path id="SVGID_00000041280734834942889760000007103406926401428153_" d="M142.924,185.618
							c0,9.262,7.508,16.771,16.771,16.771l0,0c9.262,0,16.77-7.508,16.77-16.771"/>
					</defs>
					<use xlink:href="#SVGID_00000041280734834942889760000007103406926401428153_"  style="overflow:visible;fill:#333333;"/>
					<clipPath id="SVGID_00000134209879772442358170000003015487019399576484_">
						<use xlink:href="#SVGID_00000041280734834942889760000007103406926401428153_"  style="overflow:visible;"/>
					</clipPath>
					<g style="clip-path:url(#SVGID_00000134209879772442358170000003015487019399576484_);">
						<g>
							<path style="fill:#C94958;" d="M145.634,199.122c0,3.317,6.296,6.005,14.061,6.005c7.766,0,14.061-2.689,14.061-6.005
								s-6.295-6.005-14.061-6.005C151.929,193.117,145.634,195.806,145.634,199.122z"/>
						</g>
						<g>
							
								<rect x="142.924" y="184.723" transform="matrix(-1 -1.224647e-16 1.224647e-16 -1 319.3897 375.029)" style="fill:#FFFFFF;" width="33.541" height="5.582"/>
						</g>
					</g>
				</g>
				<path style="fill:#744A56;" d="M177.389,106.298c-10.826-14.16-33.796-14.827-51.362-1.447
					c-17.566,13.38-22.739,36.13-12.25,49.9C124.267,168.522,188.341,120.676,177.389,106.298z"/>
				<path d="M196.811,174.957c0.214,2.817,1.063,5.859,3.803,6.991c7.002,2.893,9.958-4.972,10.853-10.442
					c0.503-3.071,0.731-6.344,0.369-9.446c-0.491-4.205-4.796-7.931-8.928-5.292c-5.066,3.236-6.136,10.819-6.16,16.309
					C196.746,173.674,196.762,174.31,196.811,174.957z"/>
				<path d="M174.546,195.715c-3.543,0.952-6.826,4.354-4.226,7.731c2.535,3.291,9.714,1.606,11.418-1.969
					c1.166-2.447-1.643-5.185-3.836-5.826C176.885,195.355,175.702,195.405,174.546,195.715z"/>
				<path style="fill:none;stroke:#000000;stroke-width:2;stroke-miterlimit:10;" d="M202.788,175.713
					c-3.054,12.782-14.863,19.188-25.777,24.694"/>
				<path style="fill:none;stroke:#000000;stroke-width:3;stroke-miterlimit:10;" d="M159.123,95.163
					c17.888,0.611,27.144,6.928,35.32,17.867c5.018,6.715,7.913,14.833,9.39,23.084c1.478,8.251,1.601,16.682,1.514,25.064"/>
				<path d="M122.579,174.957c-0.214,2.817-1.063,5.859-3.803,6.991c-7.002,2.893-9.958-4.972-10.853-10.442
					c-0.503-3.071-0.731-6.344-0.369-9.446c0.49-4.205,4.796-7.931,8.928-5.292c5.066,3.236,6.136,10.819,6.159,16.309
					C122.644,173.674,122.628,174.31,122.579,174.957z"/>
				<path style="fill:none;stroke:#000000;stroke-width:3;stroke-miterlimit:10;" d="M160.267,95.163
					c-17.888,0.611-27.144,6.928-35.32,17.867c-5.018,6.715-7.913,14.833-9.39,23.084c-1.478,8.251-1.601,16.682-1.514,25.064"/>
			</g>
		</g>
	</g>
</g>
<g id="DESIGNED_BY_FREEPIK">
	<g>
		<g id="XMLID_1_">
			<g id="XMLID_21_">
				<path id="XMLID_29_" style="fill:#000100;" d="M260.876,470.107c-0.49,0.502-0.91,1.054-1.255,1.645l-0.527-0.273
					c-0.076-0.337-0.396-0.569-0.746-0.528c-0.375,0.044-0.643,0.384-0.599,0.758c0.044,0.375,0.384,0.643,0.758,0.599
					c0.074-0.009,0.144-0.029,0.208-0.059l0.511,0.265c-0.284,0.627-0.49,1.289-0.611,1.975l0.845,0.149
					c0.26-1.479,0.962-2.839,2.029-3.932L260.876,470.107z"/>
				<path id="XMLID_28_" style="fill:#000100;" d="M267.09,467.5c-0.194,0-0.386,0.007-0.577,0.019l-0.083-0.709
					c0.212-0.169,0.335-0.44,0.301-0.73c-0.052-0.445-0.456-0.763-0.901-0.711c-0.445,0.052-0.763,0.456-0.711,0.901
					c0.034,0.288,0.214,0.522,0.458,0.638l0.083,0.707c-0.808,0.132-1.589,0.376-2.332,0.732l0.37,0.774
					c1.058-0.506,2.199-0.762,3.392-0.762c0.562,0,1.124,0.06,1.67,0.178l0.182-0.839C268.337,467.567,267.714,467.5,267.09,467.5z"
					/>
				<path id="XMLID_27_" style="fill:#000100;" d="M274.567,470.385c0.375-0.046,0.641-0.387,0.595-0.761
					c-0.046-0.375-0.387-0.641-0.761-0.595c-0.35,0.043-0.606,0.344-0.6,0.689l-0.471,0.411c-0.473-0.487-1.007-0.92-1.594-1.29
					l-0.457,0.726c1.284,0.809,2.288,1.955,2.903,3.313l0.782-0.354c-0.284-0.627-0.643-1.214-1.067-1.75l0.455-0.397
					C274.42,470.39,274.493,470.394,274.567,470.385z"/>
				<path id="XMLID_26_" style="fill:#000100;" d="M266.47,479.06c-0.437,0.026-0.878,0.039-1.31,0.039
					c-0.997,0-1.962-0.069-2.806-0.203c-0.442-0.07-0.958-0.175-1.439-0.331c1.185,2.107,3.476,3.539,6.102,3.539
					c3.233,0,5.959-2.17,6.737-5.1c-0.772,0.509-1.705,0.934-2.784,1.271C269.635,478.693,268.077,478.964,266.47,479.06z"/>
				<path id="XMLID_22_" style="fill:#000100;" d="M267.09,469.217c-3.796,0-6.885,3.019-6.885,6.73
					c0,0.482,0.052,0.962,0.155,1.428c0.763,0.547,3.064,1.008,6.056,0.828c3.261-0.196,5.998-1.084,7.555-2.444
					c-0.006-0.221-0.023-0.442-0.051-0.659C273.49,471.746,270.554,469.217,267.09,469.217z M264.645,476.595
					c-1.155,0-2.095-0.94-2.095-2.095c0-1.155,0.94-2.095,2.095-2.095s2.095,0.94,2.095,2.095
					C266.74,475.655,265.8,476.595,264.645,476.595z M270.01,475.566c-0.849,0-1.54-0.691-1.54-1.54c0-0.85,0.691-1.541,1.54-1.541
					c0.849,0,1.541,0.691,1.541,1.541C271.55,474.875,270.859,475.566,270.01,475.566z"/>
			</g>
			<path id="XMLID_19_" style="fill:#000100;" d="M285.213,471.332c-0.334-0.131-0.912-0.35-1.565-0.269
				c-0.624,0.078-0.956,0.386-0.956,1.14v0.981h2.523v1.944h-2.523v6.177h-2.188v-6.177h-1.517v-1.944h1.517v-1.006
				c0-1.903,1.014-3.151,2.908-3.151c0.728,0,1.31,0.138,1.8,0.349L285.213,471.332z"/>
			<path id="XMLID_17_" style="fill:#000100;" d="M290.538,475.105c-0.2-0.034-0.405-0.052-0.596-0.052
				c-1.014,0-1.71,0.62-1.71,1.827v4.425h-2.188v-8.121h2.121v0.888c0.511-0.763,1.291-1.106,2.288-1.106
				c0.469,0,0.96,0.144,1.239,0.381L290.538,475.105z"/>
			<path id="XMLID_14_" style="fill:#000100;" d="M299.22,477.232c0,0.251-0.017,0.553-0.042,0.738h-5.758
				c0.235,1.173,1.056,1.685,2.087,1.685c0.704,0,1.467-0.285,2.053-0.779l1.282,1.408c-0.922,0.846-2.095,1.232-3.461,1.232
				c-2.489,0-4.216-1.693-4.216-4.249c0-2.556,1.676-4.3,4.107-4.3C297.611,472.966,299.212,474.7,299.22,477.232z M293.429,476.477
				h3.596c-0.201-1.039-0.83-1.626-1.768-1.626C294.225,474.851,293.621,475.472,293.429,476.477z"/>
			<path id="XMLID_11_" style="fill:#000100;" d="M307.887,477.232c0,0.251-0.017,0.553-0.042,0.738h-5.758
				c0.235,1.173,1.056,1.685,2.087,1.685c0.704,0,1.467-0.285,2.053-0.779l1.282,1.408c-0.922,0.846-2.095,1.232-3.461,1.232
				c-2.489,0-4.216-1.693-4.216-4.249c0-2.556,1.676-4.3,4.107-4.3C306.277,472.966,307.878,474.7,307.887,477.232z
				 M302.095,476.477h3.596c-0.201-1.039-0.83-1.626-1.768-1.626C302.891,474.851,302.288,475.472,302.095,476.477z"/>
			<path id="XMLID_8_" style="fill:#000100;" d="M317.337,477.24c0,2.439-1.693,4.275-3.931,4.275c-1.09,0-1.861-0.427-2.389-1.056
				v4.199h-2.179v-11.474h2.137v0.897c0.528-0.662,1.307-1.115,2.422-1.115C315.644,472.966,317.337,474.801,317.337,477.24z
				 M310.909,477.24c0,1.282,0.847,2.238,2.087,2.238c1.291,0,2.095-0.997,2.095-2.238c0-1.24-0.805-2.238-2.095-2.238
				C311.755,475.002,310.909,475.958,310.909,477.24z"/>
			<path id="XMLID_5_" style="fill:#000100;" d="M320.852,470.526c0,0.788-0.612,1.391-1.4,1.391s-1.391-0.603-1.391-1.391
				c0-0.788,0.603-1.408,1.391-1.408S320.852,469.739,320.852,470.526z M320.559,481.305h-2.188v-8.121h2.188V481.305z"/>
			<path id="XMLID_2_" style="fill:#000100;" d="M324.209,476.075l3.059-2.892h2.682l-3.939,3.822l3.964,4.3h-2.69l-3.076-3.285
				v3.285h-2.188v-12.069h2.188V476.075z"/>
		</g>
		<g>
			<path style="fill:#000100;" d="M175.163,481.231v-1.194c-0.597,0.813-1.576,1.393-2.704,1.393c-2.09,0-3.566-1.592-3.566-4.196
				c0-2.555,1.46-4.213,3.566-4.213c1.078,0,2.057,0.531,2.704,1.41v-4.263h1.244v11.064H175.163z M175.163,479.059v-3.633
				c-0.448-0.697-1.41-1.294-2.405-1.294c-1.609,0-2.571,1.327-2.571,3.102c0,1.775,0.962,3.085,2.571,3.085
				C173.753,480.319,174.715,479.755,175.163,479.059z"/>
			<path style="fill:#000100;" d="M178.016,477.217c0-2.322,1.659-4.197,3.948-4.197c2.422,0,3.848,1.891,3.848,4.296v0.315h-6.486
				c0.1,1.509,1.161,2.77,2.886,2.77c0.912,0,1.841-0.365,2.471-1.012l0.597,0.813c-0.796,0.796-1.874,1.227-3.185,1.227
				C179.724,481.43,178.016,479.722,178.016,477.217z M181.947,474.049c-1.709,0-2.555,1.443-2.621,2.67h5.258
				C184.568,475.525,183.771,474.049,181.947,474.049z"/>
			<path style="fill:#000100;" d="M186.707,480.17l0.647-0.896c0.531,0.614,1.543,1.145,2.637,1.145
				c1.228,0,1.891-0.581,1.891-1.377c0-1.94-4.96-0.746-4.96-3.716c0-1.244,1.078-2.306,2.985-2.306c1.36,0,2.323,0.514,2.969,1.161
				l-0.581,0.862c-0.481-0.581-1.36-1.012-2.389-1.012c-1.095,0-1.775,0.548-1.775,1.261c0,1.758,4.96,0.597,4.96,3.716
				c0,1.344-1.078,2.422-3.151,2.422C188.631,481.43,187.52,481.032,186.707,480.17z"/>
			<path style="fill:#000100;" d="M194.487,471.246c0-0.464,0.382-0.846,0.829-0.846c0.465,0,0.846,0.381,0.846,0.846
				c0,0.464-0.381,0.829-0.846,0.829C194.868,472.075,194.487,471.71,194.487,471.246z M194.702,481.231v-8.012h1.244v8.012H194.702
				z"/>
			<path style="fill:#000100;" d="M198.003,483.288l0.63-0.929c0.663,0.796,1.46,1.095,2.604,1.095c1.327,0,2.571-0.647,2.571-2.405
				v-1.145c-0.58,0.813-1.559,1.427-2.687,1.427c-2.09,0-3.566-1.559-3.566-4.147c0-2.571,1.46-4.163,3.566-4.163
				c1.078,0,2.04,0.531,2.687,1.41v-1.211h1.244v7.78c0,2.654-1.858,3.483-3.815,3.483
				C199.877,484.483,198.948,484.217,198.003,483.288z M203.808,478.926v-3.5c-0.432-0.697-1.393-1.294-2.389-1.294
				c-1.609,0-2.571,1.277-2.571,3.052c0,1.759,0.962,3.052,2.571,3.052C202.415,480.236,203.377,479.623,203.808,478.926z"/>
			<path style="fill:#000100;" d="M212.533,481.231v-5.242c0-1.41-0.713-1.858-1.791-1.858c-0.979,0-1.908,0.597-2.372,1.244v5.855
				h-1.244v-8.012h1.244v1.161c0.564-0.663,1.658-1.36,2.853-1.36c1.676,0,2.555,0.846,2.555,2.588v5.623H212.533z"/>
			<path style="fill:#000100;" d="M215.386,477.217c0-2.322,1.659-4.197,3.948-4.197c2.422,0,3.848,1.891,3.848,4.296v0.315h-6.486
				c0.099,1.509,1.161,2.77,2.886,2.77c0.912,0,1.841-0.365,2.472-1.012l0.597,0.813c-0.796,0.796-1.874,1.227-3.185,1.227
				C217.094,481.43,215.386,479.722,215.386,477.217z M219.317,474.049c-1.709,0-2.555,1.443-2.621,2.67h5.258
				C221.938,475.525,221.141,474.049,219.317,474.049z"/>
			<path style="fill:#000100;" d="M230.58,481.231v-1.194c-0.597,0.813-1.576,1.393-2.704,1.393c-2.09,0-3.566-1.592-3.566-4.196
				c0-2.555,1.46-4.213,3.566-4.213c1.078,0,2.057,0.531,2.704,1.41v-4.263h1.244v11.064H230.58z M230.58,479.059v-3.633
				c-0.448-0.697-1.41-1.294-2.405-1.294c-1.609,0-2.571,1.327-2.571,3.102c0,1.775,0.962,3.085,2.571,3.085
				C229.17,480.319,230.131,479.755,230.58,479.059z"/>
			<path style="fill:#000100;" d="M237.761,481.231v-11.064h1.244v4.263c0.647-0.879,1.609-1.41,2.704-1.41
				c2.09,0,3.566,1.659,3.566,4.213c0,2.604-1.476,4.196-3.566,4.196c-1.128,0-2.107-0.58-2.704-1.393v1.194H237.761z
				 M241.394,480.319c1.626,0,2.588-1.31,2.588-3.085c0-1.775-0.962-3.102-2.588-3.102c-0.979,0-1.957,0.597-2.388,1.294v3.633
				C239.437,479.755,240.415,480.319,241.394,480.319z"/>
			<path style="fill:#000100;" d="M246.635,483.238c0.182,0.083,0.481,0.133,0.68,0.133c0.547,0,0.912-0.182,1.194-0.846
				l0.531-1.211l-3.351-8.095h1.344l2.671,6.569l2.654-6.569h1.36l-4.014,9.637c-0.481,1.161-1.294,1.609-2.356,1.625
				c-0.265,0-0.68-0.05-0.912-0.116L246.635,483.238z"/>
		</g>
	</g>
</g>
</svg>
