<?xml version="1.0" encoding="utf-8"?>
<!-- Generator: Adobe Illustrator 27.5.0, SVG Export Plug-In . SVG Version: 6.00 Build 0)  -->
<svg version="1.1" id="Mission_2_" xmlns="http://www.w3.org/2000/svg" xmlns:xlink="http://www.w3.org/1999/xlink" x="0px" y="0px"
	 viewBox="0 0 1200 1200" style="enable-background:new 0 0 1200 1200;" xml:space="preserve">
<g id="Background">
	<rect id="Background_1" style="fill:#09C6A2;" width="1200" height="1200"/>
	<circle id="Background_2" style="fill:#29D3B2;" cx="600" cy="600" r="399"/>
</g>
<g id="Mission">
	<path style="fill:#F2F2F2;" d="M508.273,1117.67c-0.385-0.922-0.893-2.092-1.526-3.515c-0.634-1.42-1.316-2.955-2.045-4.607
		c-0.73-1.65-1.508-3.35-2.333-5.098c-0.827-1.746-1.604-3.398-2.333-4.952c-0.73-1.557-1.411-2.947-2.045-4.177
		c-0.633-1.229-1.143-2.169-1.526-2.822c-0.423,4.53-0.768,9.437-1.037,14.717c-0.269,5.28-0.5,10.607-0.691,15.984h-5.472
		c0.153-3.457,0.326-6.942,0.519-10.456c0.192-3.513,0.413-6.969,0.663-10.367c0.249-3.398,0.518-6.71,0.806-9.937
		c0.288-3.225,0.605-6.277,0.95-9.158h4.896c1.037,1.691,2.15,3.687,3.341,5.991c1.19,2.304,2.38,4.714,3.571,7.229
		c1.19,2.516,2.342,5.03,3.456,7.545c1.113,2.516,2.132,4.81,3.053,6.884c0.921-2.074,1.939-4.368,3.053-6.884
		c1.113-2.515,2.266-5.029,3.456-7.545c1.19-2.515,2.381-4.925,3.571-7.229c1.189-2.305,2.304-4.3,3.34-5.991h4.896
		c1.305,12.865,2.285,26.171,2.938,39.918h-5.472c-0.192-5.377-0.423-10.704-0.691-15.984c-0.269-5.28-0.614-10.187-1.036-14.717
		c-0.385,0.653-0.893,1.594-1.526,2.822c-0.634,1.229-1.317,2.62-2.045,4.177c-0.73,1.554-1.508,3.206-2.333,4.952
		c-0.826,1.748-1.604,3.447-2.333,5.098c-0.73,1.652-1.411,3.188-2.045,4.607c-0.633,1.423-1.143,2.593-1.526,3.515H508.273z"/>
	<path style="fill:#F2F2F2;" d="M540.528,1083.282h5.588v39.918h-5.588V1083.282z"/>
	<path style="fill:#F2F2F2;" d="M565.296,1119.225c5.837,0,8.755-1.996,8.755-5.99c0-1.229-0.259-2.275-0.778-3.139
		c-0.518-0.864-1.219-1.613-2.102-2.247c-0.884-0.633-1.892-1.181-3.024-1.641c-1.133-0.462-2.333-0.923-3.6-1.383
		c-1.459-0.499-2.842-1.066-4.147-1.699c-1.305-0.633-2.439-1.383-3.398-2.247c-0.96-0.863-1.718-1.89-2.275-3.08
		c-0.557-1.191-0.835-2.63-0.835-4.321c0-3.493,1.19-6.222,3.571-8.179c2.38-1.959,5.664-2.938,9.85-2.938
		c2.419,0,4.616,0.26,6.595,0.778c1.977,0.518,3.427,1.085,4.348,1.699l-1.785,4.551c-0.807-0.499-2.007-0.988-3.6-1.469
		c-1.594-0.48-3.447-0.72-5.558-0.72c-1.076,0-2.074,0.114-2.996,0.345c-0.921,0.23-1.728,0.576-2.419,1.037
		c-0.69,0.46-1.238,1.046-1.642,1.756c-0.403,0.712-0.604,1.547-0.604,2.506c0,1.076,0.211,1.979,0.634,2.707
		c0.422,0.731,1.017,1.373,1.785,1.93c0.768,0.557,1.661,1.065,2.679,1.527c1.017,0.461,2.14,0.921,3.37,1.383
		c1.728,0.69,3.311,1.382,4.752,2.073c1.44,0.69,2.688,1.518,3.744,2.476c1.056,0.961,1.872,2.103,2.448,3.428
		c0.576,1.326,0.864,2.929,0.864,4.81c0,3.495-1.277,6.183-3.83,8.063c-2.554,1.883-6.154,2.823-10.8,2.823
		c-1.575,0-3.024-0.106-4.349-0.317s-2.505-0.461-3.542-0.748c-1.037-0.288-1.93-0.595-2.678-0.922
		c-0.749-0.326-1.335-0.604-1.757-0.836l1.67-4.607c0.883,0.499,2.227,1.057,4.032,1.671
		C560.477,1118.918,562.685,1119.225,565.296,1119.225z"/>
	<path style="fill:#F2F2F2;" d="M595.939,1119.225c5.836,0,8.755-1.996,8.755-5.99c0-1.229-0.26-2.275-0.778-3.139
		c-0.518-0.864-1.219-1.613-2.102-2.247c-0.884-0.633-1.893-1.181-3.025-1.641c-1.133-0.462-2.333-0.923-3.6-1.383
		c-1.459-0.499-2.842-1.066-4.147-1.699c-1.306-0.633-2.439-1.383-3.399-2.247c-0.96-0.863-1.719-1.89-2.275-3.08
		c-0.557-1.191-0.835-2.63-0.835-4.321c0-3.493,1.189-6.222,3.571-8.179c2.38-1.959,5.664-2.938,9.85-2.938
		c2.419,0,4.616,0.26,6.596,0.778c1.977,0.518,3.428,1.085,4.349,1.699l-1.786,4.551c-0.807-0.499-2.006-0.988-3.6-1.469
		c-1.594-0.48-3.447-0.72-5.559-0.72c-1.076,0-2.074,0.114-2.995,0.345c-0.922,0.23-1.728,0.576-2.42,1.037
		c-0.691,0.46-1.238,1.046-1.642,1.756c-0.403,0.712-0.604,1.547-0.604,2.506c0,1.076,0.211,1.979,0.634,2.707
		c0.422,0.731,1.017,1.373,1.786,1.93c0.768,0.557,1.661,1.065,2.678,1.527c1.017,0.461,2.141,0.921,3.37,1.383
		c1.728,0.69,3.312,1.382,4.753,2.073c1.439,0.69,2.688,1.518,3.744,2.476c1.056,0.961,1.871,2.103,2.447,3.428
		c0.577,1.326,0.864,2.929,0.864,4.81c0,3.495-1.276,6.183-3.831,8.063c-2.554,1.883-6.153,2.823-10.799,2.823
		c-1.575,0-3.024-0.106-4.349-0.317c-1.325-0.211-2.505-0.461-3.542-0.748c-1.037-0.288-1.929-0.595-2.678-0.922
		c-0.749-0.326-1.335-0.604-1.757-0.836l1.671-4.607c0.883,0.499,2.227,1.057,4.032,1.671
		C591.12,1118.918,593.327,1119.225,595.939,1119.225z"/>
	<path style="fill:#F2F2F2;" d="M617.309,1083.282h5.588v39.918h-5.588V1083.282z"/>
	<path style="fill:#F2F2F2;" d="M631.19,1103.213c0-3.418,0.509-6.432,1.526-9.044c1.017-2.61,2.399-4.789,4.148-6.538
		c1.746-1.746,3.78-3.061,6.106-3.945c2.322-0.883,4.788-1.325,7.401-1.325c2.571,0,5,0.442,7.285,1.325
		c2.284,0.885,4.292,2.199,6.021,3.945c1.727,1.749,3.101,3.928,4.117,6.538c1.018,2.612,1.526,5.626,1.526,9.044
		c0,3.417-0.509,6.431-1.526,9.042c-1.017,2.613-2.391,4.79-4.117,6.539c-1.729,1.747-3.736,3.062-6.021,3.944
		c-2.285,0.884-4.714,1.325-7.285,1.325c-2.613,0-5.079-0.441-7.401-1.325c-2.325-0.883-4.359-2.197-6.106-3.944
		c-1.749-1.749-3.132-3.926-4.148-6.539C631.699,1109.644,631.19,1106.63,631.19,1103.213z M637.066,1103.213
		c0,2.418,0.306,4.617,0.921,6.595c0.614,1.979,1.488,3.657,2.62,5.039c1.133,1.383,2.516,2.449,4.148,3.197
		c1.633,0.75,3.466,1.124,5.501,1.124s3.859-0.374,5.472-1.124c1.613-0.748,2.985-1.814,4.119-3.197
		c1.132-1.382,2.006-3.061,2.621-5.039c0.613-1.978,0.921-4.177,0.921-6.595c0-2.419-0.308-4.617-0.921-6.596
		c-0.615-1.979-1.489-3.658-2.621-5.04c-1.134-1.382-2.506-2.448-4.119-3.197c-1.612-0.749-3.436-1.124-5.472-1.124
		s-3.868,0.375-5.501,1.124c-1.632,0.749-3.015,1.815-4.148,3.197c-1.132,1.382-2.006,3.062-2.62,5.04
		C637.372,1098.596,637.066,1100.794,637.066,1103.213z"/>
	<path style="fill:#F2F2F2;" d="M704.977,1123.2c-0.846-1.421-1.815-3.015-2.91-4.781c-1.094-1.767-2.274-3.601-3.542-5.501
		c-1.267-1.9-2.583-3.83-3.944-5.789c-1.364-1.958-2.719-3.849-4.063-5.674c-1.345-1.824-2.649-3.542-3.916-5.154
		c-1.268-1.612-2.439-3.033-3.514-4.264v31.163h-5.473v-39.918h4.436c1.804,1.921,3.734,4.157,5.788,6.712
		c2.055,2.553,4.09,5.183,6.105,7.89c2.017,2.708,3.918,5.367,5.702,7.978c1.786,2.613,3.293,4.936,4.522,6.97v-29.549h5.472v39.918
		H704.977z"/>
</g>
<g id="Mission_1_">
	<g>
		<path style="fill-rule:evenodd;clip-rule:evenodd;fill:#3C8F9A;" d="M439.087,761.321c113.579,0,206.212-92.634,206.212-206.213
			c0-113.646-92.633-206.279-206.212-206.279c-113.578,0-206.28,92.633-206.28,206.279
			C232.807,668.688,325.509,761.321,439.087,761.321L439.087,761.321z"/>
		<g>
			<path style="fill-rule:evenodd;clip-rule:evenodd;fill:#FFDB79;" d="M439.02,453.624c44.931,0,81.349,36.417,81.349,81.352
				c0,27.632-13.851,52.093-34.931,66.754c-9.325,24.12-26.623,40.339-46.418,40.339c-19.864,0-37.163-16.219-46.486-40.339
				c-21.081-14.661-34.865-39.122-34.865-66.754C357.669,490.041,394.088,453.624,439.02,453.624L439.02,453.624z"/>
			<path style="fill-rule:evenodd;clip-rule:evenodd;fill:#FAB83E;" d="M464.695,553.081v-0.201c0-8.312-6.756-15.069-15.067-15.069
				c-4.121,0-7.905,1.691-10.607,4.46c-2.77-2.769-6.486-4.46-10.677-4.46c-8.31,0-15.067,6.757-15.067,15.069v0.201l-2.838,1.623
				l14.257,28.447v56.012c2.364,1.014,4.864,1.756,7.432,2.229l-0.067-58.24l-15.337-29.325c0-0.34,0-0.609,0-0.946
				c0-6.419,5.203-11.621,11.621-11.621c3.379,0,6.419,1.417,8.514,3.715c-2.23,3.582-4.391,18.108,2.163,3.242
				c6.486,14.865,4.324,0.34,2.094-3.242c2.162-2.298,5.203-3.715,8.513-3.715c6.419,0,11.689,5.202,11.689,11.621
				c0,0.336-0.067,0.606-0.067,0.946l-15.338,29.325l-0.067,58.24c2.568-0.473,5.067-1.215,7.5-2.229V583.15l14.188-28.447
				L464.695,553.081z"/>
			<path style="fill-rule:evenodd;clip-rule:evenodd;fill:#FFFFFF;" d="M436.046,430.922h5.946v-36.958h-5.946V430.922z
				 M331.387,501.056l-2.23,5.473l-26.148-10.607l2.23-5.542L331.387,501.056z M396.79,438.692l-5.472,2.23l-10.811-26.081
				l5.473-2.296L396.79,438.692z M324.225,523.081l-1.082,5.813l-18.175-3.448l1.08-5.81L324.225,523.081z M342.738,480.854
				l-3.244,4.999l-15.471-10.202l3.309-5L342.738,480.854z M375.711,449.302l-4.865,3.31l-10.405-15.338l4.932-3.311
				L375.711,449.302z M418.548,432.679l-5.812,1.148l-3.716-18.107l5.811-1.216L418.548,432.679z M323.211,430.315l-4.121,4.188
				l3.852,3.784l4.188-4.189L323.211,430.315z M357.331,463.759l-4.12,4.258l-26.419-25.945l4.189-4.189L357.331,463.759z
				 M546.585,501.056l2.23,5.473l26.215-10.607l-2.229-5.542L546.585,501.056z M481.181,438.692l5.474,2.23l10.877-26.081
				l-5.54-2.296L481.181,438.692z M553.747,523.081l1.148,5.813l18.107-3.448l-1.081-5.81L553.747,523.081z M535.234,480.854
				l3.312,4.999l15.404-10.202l-3.312-5L535.234,480.854z M502.262,449.302l4.932,3.31l10.338-15.338l-4.932-3.311L502.262,449.302z
				 M459.425,432.679l5.811,1.148l3.717-18.107l-5.811-1.216L459.425,432.679z M554.76,430.315l4.122,4.188l-3.851,3.784
				l-4.122-4.189L554.76,430.315z M436.046,383.153h5.946v5.406h-5.946V383.153z M520.641,463.759l4.121,4.258l26.418-25.945
				l-4.122-4.189L520.641,463.759z"/>
			<g>
				<path style="fill-rule:evenodd;clip-rule:evenodd;fill:#CCCCCC;" d="M410.776,633.148h56.418
					c5.946,0,10.811,4.865,10.811,10.811v57.767c0,5.882-4.865,10.746-10.811,10.746h-56.418c-5.945,0-10.81-4.864-10.81-10.746
					v-57.767C399.967,638.014,404.831,633.148,410.776,633.148L410.776,633.148z"/>
				<path style="fill-rule:evenodd;clip-rule:evenodd;fill:#808080;" d="M401.115,693.755h75.809c0.608,0,1.082,0.472,1.082,1.149
					v5.809c0,0.609-0.473,1.15-1.082,1.15h-75.809c-0.608,0-1.148-0.541-1.148-1.15v-5.809
					C399.967,694.227,400.507,693.755,401.115,693.755L401.115,693.755z"/>
				<path style="fill-rule:evenodd;clip-rule:evenodd;fill:#808080;" d="M401.115,685.174h75.809c0.608,0,1.082-0.473,1.082-1.082
					v-5.877c0-0.607-0.473-1.08-1.082-1.08h-75.809c-0.608,0-1.148,0.473-1.148,1.08v5.877
					C399.967,684.701,400.507,685.174,401.115,685.174L401.115,685.174z"/>
				<path style="fill-rule:evenodd;clip-rule:evenodd;fill:#808080;" d="M401.115,660.444h75.809c0.608,0,1.082,0.54,1.082,1.148
					v5.813c0,0.674-0.473,1.146-1.082,1.146h-75.809c-0.608,0-1.148-0.472-1.148-1.146v-5.813
					C399.967,660.984,400.507,660.444,401.115,660.444L401.115,660.444z"/>
				<path style="fill-rule:evenodd;clip-rule:evenodd;fill:#808080;" d="M401.115,651.932h75.809c0.608,0,1.082-0.543,1.082-1.148
					v-5.81c0-0.675-0.473-1.15-1.082-1.15h-75.809c-0.608,0-1.148,0.476-1.148,1.15v5.81
					C399.967,651.389,400.507,651.932,401.115,651.932L401.115,651.932z"/>
			</g>
		</g>
	</g>
	<g>
		<path style="fill-rule:evenodd;clip-rule:evenodd;fill:#FFFFFF;" d="M940.429,220.251
			c109.185,63.106,146.618,202.699,83.579,311.953c-42.365,73.31-119.321,114.321-198.373,114.186l-83.107,49.662l-8.988-69.39
			c-7.299-3.246-14.392-6.824-21.484-10.947c-109.189-63.039-146.62-202.63-83.515-311.886
			C691.581,194.644,831.174,157.212,940.429,220.251L940.429,220.251z"/>
		<path style="fill-rule:evenodd;clip-rule:evenodd;fill:#3C8F9A;" d="M953.333,585.985c-16.148,12.23-34.119,22.096-53.445,29.257
			V321.127h53.445V585.985z M846.444,627.338c-6.352,0.54-12.703,0.876-19.189,0.876c-11.688,0-23.108-1.011-34.257-2.836V435.854
			h53.446V627.338z M739.553,608.96c-19.659-9.056-37.631-21.082-53.444-35.475v-68.644h53.444V608.96z"/>
		<path style="fill-rule:evenodd;clip-rule:evenodd;fill:#EE6249;" d="M953.333,251.601c21.352,16.149,39.526,36.352,53.377,59.391
			v215.671c-13.851,23.04-32.025,43.174-53.377,59.322V251.601z M899.888,615.242c-16.891,6.219-34.864,10.404-53.443,12.096
			V378.491h53.443V615.242z M792.998,625.378c-18.783-3.107-36.688-8.648-53.445-16.418V479.097h53.445V625.378z"/>
		<path style="fill-rule:evenodd;clip-rule:evenodd;fill:#3C8F9A;" d="M724.893,451.327c30.405-19.864,73.445-37.499,87.698-113.646
			l-19.523-0.271l40.81-44.661l24.253,54.121l-18.58-5.204C818.877,409.503,764.012,434.099,724.893,451.327L724.893,451.327z"/>
		<path style="fill-rule:evenodd;clip-rule:evenodd;fill:#3C8F9A;" d="M727.864,372.95c0,0.474-0.066,0.947-0.066,1.352
			c0,6.689,1.418,10.067,4.188,10.067c2.906,0,4.391-3.784,4.391-11.419c0-7.567-1.417-11.351-4.119-11.351
			C729.556,361.599,728.067,365.383,727.864,372.95L727.864,372.95z M753.744,363.357c-0.81,0.27-1.352,1.012-1.692,2.364
			c-0.134,0.811-0.269,1.622-0.269,2.432c0,0.541,0.067,1.149,0.135,1.691c0.202,1.35,0.879,2.093,2.027,2.093h0.134
			c1.017,0,1.759-0.472,2.163-1.486c0.269-0.878,0.473-1.891,0.473-3.04c0-0.27,0-0.608,0-0.878c-0.135-1.553-0.473-2.5-0.945-2.905
			c-0.338-0.27-0.742-0.338-1.217-0.338C754.352,363.288,754.013,363.288,753.744,363.357L753.744,363.357z M772.119,371.599
			c4.394,0,6.556,2.635,6.556,7.77c0,0.202,0,0.406,0,0.608c-0.134,5.607-2.5,8.445-7.028,8.445
			c-0.066,0.067-0.133,0.067-0.133,0.067c-4.327,0-6.488-2.635-6.488-7.973v-0.404C765.163,374.437,767.526,371.599,772.119,371.599
			L772.119,371.599z M771.444,376.127c-0.81,0.202-1.349,1.013-1.688,2.364c-0.135,0.81-0.271,1.554-0.271,2.363
			c0,0.609,0.067,1.15,0.137,1.69c0.202,1.419,0.879,2.094,2.025,2.162h0.135c1.017,0,1.76-0.54,2.164-1.554
			c0.269-0.878,0.473-1.892,0.473-3.04c0-0.27,0-0.542,0-0.879c-0.136-1.554-0.473-2.5-0.945-2.904
			c-0.339-0.202-0.743-0.338-1.218-0.338C772.053,375.991,771.715,376.059,771.444,376.127L771.444,376.127z M769.147,358.896
			l-8.581,29.932l-3.312-0.54l8.583-29.999L769.147,358.896z M754.418,358.896c4.392,0,6.556,2.569,6.556,7.771
			c0,0.202,0,0.405,0,0.608c-0.203,5.607-2.501,8.377-7.028,8.445c-0.067,0-0.135,0-0.135,0c-4.326,0-6.486-2.635-6.486-7.905
			v-0.473C747.459,361.734,749.825,358.896,754.418,358.896L754.418,358.896z M732.459,354.437c6.688,0,10.069,6.148,10.069,18.378
			c0,12.23-3.584,18.379-10.813,18.379c-7.16,0-10.742-6.352-10.742-19.054C720.973,360.383,724.757,354.437,732.459,354.437
			L732.459,354.437z M709.961,369.436c1.755-0.743,2.769-1.958,3.041-3.715c0.135-0.608,0.201-1.215,0.201-1.757
			c0-0.879-0.135-1.554-0.404-2.163c-0.474-0.878-1.285-1.418-2.433-1.486h-0.271c-1.014,0-1.826,0.473-2.434,1.351
			c-0.472,0.676-0.741,1.622-0.741,2.703c0,0.406,0.066,0.878,0.134,1.352C707.26,367.478,708.269,368.693,709.961,369.436
			L709.961,369.436z M710.027,375.855c-1.758,0.946-2.768,2.027-3.106,3.244c-0.135,0.744-0.273,1.418-0.273,2.094
			c0,0.474,0.068,1.014,0.204,1.487c0.203,1.081,0.676,1.891,1.352,2.365c0.472,0.405,1.012,0.54,1.623,0.54
			c0.27,0,0.54,0,0.81-0.067c0.944-0.203,1.623-0.607,2.027-1.216c0.474-0.675,0.675-1.554,0.741-2.703
			c0.068-0.135,0.068-0.27,0.068-0.472c0-0.946-0.203-1.893-0.607-2.771C712.393,377.343,711.445,376.464,710.027,375.855
			L710.027,375.855z M714.825,373.288c2.298,1.014,3.715,2.567,4.323,4.46c0.34,1.351,0.542,2.769,0.542,4.189
			c0,0.675,0,1.284-0.136,1.96c-0.271,2.163-1.083,3.986-2.567,5.54c-1.487,1.554-3.718,2.365-6.825,2.432h-0.404
			c-2.837,0-5.135-0.811-6.825-2.297c-1.824-1.486-2.768-3.716-2.837-6.486c0-0.202,0-0.404,0-0.608
			c0-2.566,0.473-4.594,1.486-6.148c1.014-1.622,2.363-2.635,3.852-3.041c-1.148-0.473-2.298-1.419-3.445-2.77
			c-1.149-1.351-1.757-3.31-1.824-5.877v-0.271c0-2.433,0.539-4.527,1.553-6.419c1.015-1.823,2.703-2.973,5.069-3.445
			c1.148-0.203,2.296-0.338,3.31-0.338c1.08,0,2.094,0.135,3.107,0.338c1.893,0.473,3.377,1.486,4.527,3.108
			c1.08,1.622,1.689,3.716,1.824,6.351v0.744c0,2.229-0.406,3.985-1.149,5.27C717.597,371.397,716.378,372.478,714.825,373.288
			L714.825,373.288z"/>
	</g>
	<path style="fill:#FFFFFF;" d="M504.153,869.696c3.311,0,5.946,2.636,5.946,5.946c0,3.312-2.635,5.946-5.946,5.946h-11.959
		c-3.244,0-5.946-2.635-5.946-5.946c0-3.311,2.702-5.946,5.946-5.946H504.153z M634.018,318.492c3.309,0,6.01,2.635,6.01,5.947
		c0,3.31-2.701,5.945-6.01,5.945h-11.894c-3.311,0-5.945-2.634-5.945-5.945c0-3.311,2.635-5.947,5.945-5.947H634.018z
		 M586.382,318.492c3.242,0,5.944,2.635,5.944,5.947c0,3.31-2.703,5.945-5.944,5.945h-11.96c-3.243,0-5.945-2.634-5.945-5.945
		c0-3.311,2.702-5.947,5.945-5.947H586.382z M538.68,318.492c3.31,0,5.946,2.635,5.946,5.947c0,3.31-2.637,5.945-5.946,5.945
		h-11.892c-3.311,0-5.945-2.634-5.945-5.945c0-3.311,2.634-5.947,5.945-5.947H538.68z M491.046,318.492
		c3.244,0,5.946,2.635,5.946,5.947c0,3.31-2.702,5.945-5.946,5.945h-11.959c-3.244,0-5.946-2.634-5.946-5.945
		c0-3.311,2.703-5.947,5.946-5.947H491.046z M443.344,318.492c3.311,0,5.946,2.635,5.946,5.947c0,3.31-2.636,5.945-5.946,5.945
		h-11.892c-3.31,0-6.014-2.634-6.014-5.945c0-3.311,2.703-5.947,6.014-5.947H443.344z M395.71,318.492
		c3.244,0,5.946,2.635,5.946,5.947c0,3.31-2.702,5.945-5.946,5.945h-11.958c-3.312,0-5.946-2.634-5.946-5.945
		c0-3.311,2.635-5.947,5.946-5.947H395.71z M348.008,318.492c3.31,0,5.945,2.635,5.945,5.947c0,3.31-2.634,5.945-5.945,5.945
		h-11.892c-3.31,0-6.014-2.634-6.014-5.945c0-3.311,2.704-5.947,6.014-5.947H348.008z M184.903,453.354
		c0-7.837,11.892-7.837,11.892,0v11.893c0,7.837-11.892,7.837-11.892,0V453.354z M184.903,500.988c0-3.242,2.704-5.947,5.946-5.947
		c3.311,0,5.946,2.705,5.946,5.947v11.958c0,3.245-2.635,5.947-5.946,5.947c-3.242,0-5.946-2.703-5.946-5.947V500.988z
		 M184.903,548.69c0-3.311,2.704-5.945,5.946-5.945c3.311,0,5.946,2.634,5.946,5.945v11.89c0,3.312-2.635,5.947-5.946,5.947
		c-3.242,0-5.946-2.635-5.946-5.947V548.69z M184.903,596.326c0-3.246,2.704-5.948,5.946-5.948c3.311,0,5.946,2.702,5.946,5.948
		v11.956c0,3.313-2.635,5.947-5.946,5.947c-3.242,0-5.946-2.634-5.946-5.947V596.326z M196.863,644.025
		c-3.311,0-5.946-2.703-5.946-6.012c0-3.244,2.635-5.946,5.946-5.946h11.891c3.311,0,5.945,2.702,5.945,5.946
		c0,3.309-2.634,6.012-5.945,6.012H196.863z M244.497,644.025c-3.244,0-5.946-2.703-5.946-6.012c0-3.244,2.703-5.946,5.946-5.946
		h11.959c3.244,0,5.945,2.702,5.945,5.946c0,3.309-2.702,6.012-5.945,6.012H244.497z M292.198,644.025
		c-3.31,0-5.946-2.703-5.946-6.012c0-3.244,2.636-5.946,5.946-5.946h11.892c3.311,0,6.014,2.702,6.014,5.946
		c0,3.309-2.704,6.012-6.014,6.012H292.198z M339.832,644.025c-3.243,0-5.945-2.703-5.945-6.012c0-3.244,2.702-5.946,5.945-5.946
		h11.149c3.311,0,5.945,2.702,5.945,5.946v0.809c0,3.313-2.634,5.947-5.945,5.947c-1.082,0-2.096-0.271-2.973-0.744H339.832z
		 M345.035,674.567c0-3.313,2.702-5.947,5.946-5.947c3.311,0,5.945,2.635,5.945,5.947v9.118v2.839c0,3.245-2.634,5.947-5.945,5.947
		c-3.245,0-5.946-2.702-5.946-5.947v-2.839V674.567z M345.035,722.269c0-3.312,2.702-5.948,5.946-5.948
		c3.311,0,5.945,2.637,5.945,5.948v11.889c0,3.313-2.634,5.95-5.945,5.95c-3.245,0-5.946-2.637-5.946-5.95V722.269z
		 M350.981,763.956C374.831,763.956,327.13,763.956,350.981,763.956L350.981,763.956z M444.56,881.589
		c-3.31,0-5.945-2.635-5.945-5.946c0-3.311,2.635-5.946,5.945-5.946h11.892c3.31,0,5.944,2.636,5.944,5.946
		c0,3.312-2.634,5.946-5.944,5.946H444.56z"/>
	<g>
		<polygon style="fill-rule:evenodd;clip-rule:evenodd;fill:#C63D3E;" points="189.768,336.397 232.132,352.613 262.132,430.99 
			266.253,421.734 275.239,401.733 295.239,410.652 304.495,414.841 274.495,336.397 232.132,352.613 202.133,430.99 
			198.011,421.734 189.093,401.733 169.025,410.652 159.77,414.841 		"/>
		<polygon style="fill-rule:evenodd;clip-rule:evenodd;fill:#FFDB79;" points="232.132,190.657 258.416,216.399 294.36,213.292 
			297.941,249.913 327.399,270.655 306.657,300.993 315.914,335.789 280.576,345.722 265.239,378.355 231.727,363.22 
			199.025,378.355 183.146,345.248 148.35,335.789 157.472,300.181 136.863,270.655 166.728,249.237 169.972,213.292 
			206.592,216.129 		"/>
		<path style="fill-rule:evenodd;clip-rule:evenodd;fill:#FFFFFF;" d="M232.132,341.938c31.622,0,57.432-25.811,57.432-57.431
			c0-31.622-25.81-57.363-57.432-57.363c-31.621,0-57.364,25.741-57.364,57.363C174.768,316.127,200.511,341.938,232.132,341.938
			L232.132,341.938z"/>
	</g>
	<g>
		<rect x="557.192" y="835.171" style="fill-rule:evenodd;clip-rule:evenodd;fill:#FAC59D;" width="30.945" height="20.27"/>
		<path style="fill-rule:evenodd;clip-rule:evenodd;fill:#FFFFFF;" d="M573.273,855.44L573.273,855.44
			c7.229,0,13.987-8.041,19.797-4.595l-20.405,71.688l-20.269-71.079C558.477,847.671,565.638,855.44,573.273,855.44L573.273,855.44
			z"/>
		<polygon style="fill-rule:evenodd;clip-rule:evenodd;fill:#505962;" points="552.193,850.643 528.411,859.563 520.369,906.25 
			533.004,951.586 572.665,951.586 612.327,951.586 624.962,906.25 616.922,859.563 593.138,850.643 572.665,922.534 		"/>
		<polygon style="fill-rule:evenodd;clip-rule:evenodd;fill:#F0725B;" points="572.665,856.05 566.517,862.265 569.76,869.967 
			567.26,904.629 572.665,922.534 578.071,904.629 575.57,869.967 578.815,862.265 		"/>
		<path style="fill-rule:evenodd;clip-rule:evenodd;fill:#FAD8BC;" d="M572.665,782.536c17.567,0,31.824,14.257,31.824,31.823
			c0,17.567-14.257,31.824-31.824,31.824s-31.823-14.257-31.823-31.824C540.843,796.793,555.099,782.536,572.665,782.536
			L572.665,782.536z"/>
		<path style="fill-rule:evenodd;clip-rule:evenodd;fill:#525156;" d="M572.665,770.443c-8.985,1.688-14.257-0.205-20.135,3.377
			c-8.176,4.932-15.81,18.175-12.701,36.688c0.876,5.205,1.755,10.407,2.634,15.61c1.621-9.054,0.946-18.245,8.242-26.758
			c2.636,2.635-1.284,5.945,1.352,8.579c2.23-6.418,13.244-10.202,20.608-11.213c7.703-0.407,21.216,1.217,26.081,5.539
			c5.607,5.067,2.365,14.189,4.12,23.853c0.88-5.203,1.759-10.405,2.636-15.61c3.11-18.513-4.525-31.756-12.702-36.688
			C586.854,770.238,581.652,772.131,572.665,770.443L572.665,770.443z"/>
		<rect x="795.297" y="802.873" style="fill-rule:evenodd;clip-rule:evenodd;fill:#E0AC83;" width="39.593" height="25.879"/>
		<path style="fill-rule:evenodd;clip-rule:evenodd;fill:#E6E6E6;" d="M815.904,828.752L815.904,828.752
			c9.188,0,17.837-10.27,25.269-5.879l-26.082,91.554l-25.877-90.743C796.985,818.819,806.107,828.752,815.904,828.752
			L815.904,828.752z"/>
		<polygon style="fill-rule:evenodd;clip-rule:evenodd;fill:#363F48;" points="788.945,822.669 758.539,834.023 748.271,893.614 
			764.416,951.586 815.092,951.586 865.769,951.586 881.917,893.614 871.646,834.023 841.241,822.669 815.092,914.427 		"/>
		<polygon style="fill-rule:evenodd;clip-rule:evenodd;fill:#D65842;" points="815.092,829.563 807.188,837.468 811.377,847.332 
			808.201,891.59 815.092,914.427 821.984,891.59 818.81,847.332 822.998,837.468 		"/>
		<path style="fill-rule:evenodd;clip-rule:evenodd;fill:#E0BFA2;" d="M815.092,735.579c22.432,0,40.677,18.241,40.677,40.675
			c0,22.498-18.245,40.673-40.677,40.673c-22.496,0-40.674-18.175-40.674-40.673C774.418,753.82,792.596,735.579,815.092,735.579
			L815.092,735.579z"/>
		<path style="fill-rule:evenodd;clip-rule:evenodd;fill:#39383C;" d="M815.092,720.106c-11.484,2.23-18.176-0.201-25.674,4.323
			c-10.541,6.353-20.271,23.245-16.284,46.893c1.148,6.622,2.23,13.31,3.379,19.933c2.095-11.488,1.216-23.242,10.54-34.122
			c3.379,3.379-1.688,7.566,1.69,10.946c2.905-8.244,16.892-13.039,26.35-14.324c9.863-0.541,27.163,1.488,33.379,7.094
			c7.162,6.418,2.906,18.041,5.204,30.406c1.145-6.623,2.228-13.31,3.376-19.933c3.988-23.647-5.809-40.54-16.281-46.893
			C833.269,719.904,826.58,722.336,815.092,720.106L815.092,720.106z"/>
		<rect x="661.855" y="776.929" style="fill-rule:evenodd;clip-rule:evenodd;fill:#F9BF92;" width="46.483" height="30.404"/>
		<path style="fill-rule:evenodd;clip-rule:evenodd;fill:#FFFFFF;" d="M686.041,807.333L686.041,807.333
			c10.811,0,20.946-12.028,29.662-6.89l-30.606,107.563l-30.405-106.618C663.81,795.713,674.555,807.333,686.041,807.333
			L686.041,807.333z"/>
		<polygon style="fill-rule:evenodd;clip-rule:evenodd;fill:#3C4650;" points="654.354,800.17 618.68,813.55 606.585,883.547 
			625.568,951.586 685.097,951.586 744.553,951.586 763.54,883.547 751.512,813.55 715.771,800.17 685.097,908.006 		"/>
		<polygon style="fill-rule:evenodd;clip-rule:evenodd;fill:#EE6249;" points="685.097,808.281 675.839,817.604 680.703,829.226 
			676.988,881.182 685.097,908.006 693.204,881.182 689.488,829.226 694.284,817.604 		"/>
		<path style="fill-rule:evenodd;clip-rule:evenodd;fill:#F9D4B4;" d="M685.097,697.944c26.349,0,47.701,21.416,47.701,47.769
			c0,26.418-21.353,47.771-47.701,47.771c-26.421,0-47.771-21.352-47.771-47.771C637.326,719.36,658.676,697.944,685.097,697.944
			L685.097,697.944z"/>
		<path style="fill-rule:evenodd;clip-rule:evenodd;fill:#3F3E43;" d="M685.097,679.836c-13.514,2.568-21.354-0.269-30.204,5.068
			c-12.297,7.433-23.715,27.296-19.053,55c1.285,7.836,2.567,15.674,3.92,23.444c2.5-13.515,1.486-27.365,12.431-40.136
			c3.919,3.986-2.027,8.918,1.961,12.906c3.377-9.663,19.864-15.338,30.945-16.826c11.552-0.607,31.823,1.76,39.118,8.313
			c8.448,7.568,3.515,21.216,6.15,35.743c1.35-7.77,2.635-15.608,3.984-23.444c4.664-27.704-6.821-47.567-19.119-55
			C706.378,679.566,698.541,682.404,685.097,679.836L685.097,679.836z"/>
		<path style="fill-rule:evenodd;clip-rule:evenodd;fill:#E6E6E6;" d="M492.126,947.805h418.504c6.893,0,12.567,5.675,12.567,12.566
			l0,0c0,6.96-5.674,12.635-12.567,12.635H492.126c-6.96,0-12.635-5.675-12.635-12.635l0,0
			C479.491,953.479,485.167,947.805,492.126,947.805L492.126,947.805z"/>
	</g>
	<g>
		<path style="fill-rule:evenodd;clip-rule:evenodd;fill:#FECA7E;" d="M303.076,761.321l143.781,35.675l-35.675,143.78
			l-143.713-35.674L303.076,761.321z M320.576,774.429c5.54,1.353,8.987,7.028,7.568,12.566c-1.351,5.607-7.027,8.988-12.634,7.635
			c-5.541-1.418-8.987-7.026-7.569-12.633C309.293,776.456,314.967,773.011,320.576,774.429L320.576,774.429z"/>
		<path style="fill-rule:evenodd;clip-rule:evenodd;fill:#FFE5AF;" d="M290.847,810.713l143.781,35.674l12.23-49.391
			l-143.781-35.675L290.847,810.713z M320.576,774.429c5.54,1.353,8.987,7.028,7.568,12.566c-1.351,5.607-7.027,8.988-12.634,7.635
			c-5.541-1.418-8.987-7.026-7.569-12.633C309.293,776.456,314.967,773.011,320.576,774.429L320.576,774.429z"/>
		<polygon style="fill-rule:evenodd;clip-rule:evenodd;fill:#3F3F41;" points="354.225,848.753 409.56,862.467 408.141,868.346 
			352.805,854.63 		"/>
		<polygon style="fill-rule:evenodd;clip-rule:evenodd;fill:#3F3F41;" points="307.874,852.602 390.034,873.008 388.616,878.819 
			306.455,858.482 		"/>
		<polygon style="fill-rule:evenodd;clip-rule:evenodd;fill:#3F3F41;" points="328.616,873.075 391.926,888.815 390.44,894.631 
			327.197,878.954 		"/>
		<polygon style="fill-rule:evenodd;clip-rule:evenodd;fill:#FFFFFF;" points="325.914,789.968 301.793,768.619 277.672,747.266 
			273.685,752.741 269.768,758.28 297.874,774.157 		"/>
		<polygon style="fill-rule:evenodd;clip-rule:evenodd;fill:#F25E4F;" points="216.253,725.106 216.66,724.631 228.484,708.011 
			228.821,707.539 278.618,733.889 269.699,746.456 266.456,751.051 257.47,763.618 		"/>
		<path style="fill-rule:evenodd;clip-rule:evenodd;fill:#C44D40;" d="M206.254,720.309l14.73-20.676
			c1.352-1.822,3.852-2.296,5.677-1.014l4.661,3.311c1.825,1.352,2.23,3.852,0.946,5.678l-14.73,20.741
			c-1.352,1.824-3.852,2.23-5.675,0.945l-4.663-3.31C205.376,724.698,204.97,722.133,206.254,720.309L206.254,720.309z"/>
		<path style="fill-rule:evenodd;clip-rule:evenodd;fill:#DA5547;" d="M291.185,728.484c-13.378-8.717-31.418-5.406-40.743,7.703
			c-9.392,13.104-6.622,31.214,6.014,41.011L291.185,728.484z"/>
		<path style="fill-rule:evenodd;clip-rule:evenodd;fill:#F36E61;" d="M255.24,767.198l26.081-36.62
			c0.879-1.149,2.5-1.486,3.716-0.606l0,0c1.149,0.876,1.419,2.499,0.608,3.715l-26.08,36.621c-0.878,1.147-2.5,1.418-3.716,0.608
			l0,0C254.699,770.037,254.361,768.415,255.24,767.198L255.24,767.198z"/>
	</g>
</g>
</svg>
