<?xml version="1.0" encoding="utf-8"?>
<!-- Generator: Adobe Illustrator 27.5.0, SVG Export Plug-In . SVG Version: 6.00 Build 0)  -->
<svg version="1.1" xmlns="http://www.w3.org/2000/svg" xmlns:xlink="http://www.w3.org/1999/xlink" x="0px" y="0px"
	 viewBox="0 0 625 500" style="enable-background:new 0 0 625 500;" xml:space="preserve">
<g id="BACKGROUND">
	<rect style="fill:#302E51;" width="625" height="500"/>
</g>
<g id="OBJECTS">
	<g>
		<rect y="449.333" style="fill:#22213D;" width="625" height="32.333"/>
		<rect y="481.667" style="fill:#161533;" width="625" height="18.333"/>
	</g>
	<g>
		<g>
			<path style="fill:#22213D;" d="M510.246,339.4c17.907,4.138,38.003-4.148,47.788-19.705c9.786-15.557,8.553-37.259-2.931-51.609
				c-4.162-5.2-9.425-9.396-14.023-14.215c-4.597-4.819-8.657-10.583-9.497-17.19c-0.561-4.41,0.342-9.001-0.91-13.267
				c-1.299-4.428-4.74-7.881-8.31-10.806c-3.57-2.925-7.454-5.587-10.211-9.288c-2.757-3.701-1.516-12.669-1.516-17.024
				l-92.232-3.965c2.778,11.548-1.524,25.529-10.359,33.469c-4.527,4.068-10.438,7.242-12.528,12.958
				c-2.362,6.462,1.113,13.482,1.43,20.355c0.465,10.087-5.827,19.053-9.384,28.503c-5.942,15.786-3.977,34.332,5.143,48.521
				c2.553,3.972,5.798,7.739,10.156,9.555c3.477,1.449,7.349,1.532,11.116,1.594c13.628,9.331,29.382,15.833,45.895,16.146
				C476.386,353.747,496.273,348.208,510.246,339.4z"/>
			<g>
				<path style="fill:#585670;" d="M427.075,244.528l-34.132,79.945l17.667,19.356v25.288c0,13.424-1.682,26.796-5.005,39.803
					l-10.328,40.413h147.667l-9.825-34.862c-7.119-25.263-7.945-51.885-2.404-77.541l10.18-47.134
					c4.615-21.37-9.26-42.351-30.731-46.47l-18.643-3.576L427.075,244.528z"/>
				<path style="fill:#2B2A47;" d="M410.203,380.493l12.939,13.96c13.186,14.227,36.199,12.413,46.993-3.704l63.366-94.616
					L441.129,386L410.203,380.493z"/>
				<rect x="474.61" y="418.5" style="fill:#807FA3;" width="41.25" height="7.75"/>
				<path style="fill:#807FA3;" d="M438.777,420.167c0,2.853-1.53,5.167-3.417,5.167s-3.417-2.313-3.417-5.167
					c0-2.853,1.53-5.167,3.417-5.167S438.777,417.313,438.777,420.167z"/>
			</g>
			<g>
				<path style="fill:#FFFFFF;" d="M491.52,239.75l-38.085,68.12c-2.539,4.541-4.143,9.543-4.719,14.713L444.101,364l-9.067-43.278
					c-1.158-5.527-1.102-11.239,0.164-16.742l14.057-61.097L491.52,239.75z"/>
				<path style="fill:#807FA3;" d="M449.256,242.883l-24.792,30.344c-2.315,2.834-2.057,6.973,0.592,9.497l3.304,3.148
					l-10.929,18.602c-1.28,2.178-1.286,4.877-0.017,7.062l24.55,42.263l-6.93-33.077c-1.158-5.527-1.102-11.239,0.164-16.742
					L449.256,242.883z"/>
				<path style="fill:#807FA3;" d="M491.52,239.75l-38.085,68.12c-2.539,4.541-4.143,9.543-4.719,14.713l-3.478,31.216
					l30.042-40.109c3.153-4.209,3.871-9.762,1.892-14.635l-4.062-10.004l12.049-8.489c3.988-2.81,6.361-7.384,6.361-12.262V239.75z"
					/>
				<polygon style="fill:#E4E4E0;" points="467.277,250.833 456.735,272.833 468.379,260 475.613,264.837 				"/>
				<polygon style="fill:#E4E4E0;" points="452.943,256 456.86,259.75 456.735,272.833 452.943,261.167 444.101,265.288 
					445.097,260.959 451.454,254.395 				"/>
			</g>
			<g>
				<path style="fill:#2B2A47;" d="M289.86,242.5L289.86,242.5c-4.826,11.52-15.21,19.772-27.522,21.872l-2.728,0.465l11.667-19.17
					L289.86,242.5z"/>
				<g>
					<path style="fill:#EBA588;" d="M244.985,218.375c0.875,18,10.375,21.417,14.625,22.958l4.5-29.333L244.985,218.375z"/>
					<path style="fill:#EBA588;" d="M264.187,192.213L264.187,192.213c-2.92-0.561-5.942,0.111-8.35,1.856l-14.602,10.586
						c-1.041,0.755-1.742,1.89-1.95,3.159l-1.064,6.478c-0.276,1.681,0.345,3.385,1.639,4.493l1.816,1.557
						c1.519,1.302,3.679,1.545,5.449,0.612L264.11,212l1.5-17L264.187,192.213z"/>
					<path style="fill:#F0BF9C;" d="M291.477,254.574L276.61,228l4.256-22.895c0.374-2.01,0.052-4.087-0.912-5.89l-8.182-15.297
						c-1.167-2.182-3.181-3.787-5.568-4.438l-13.702-3.737c-2.459-0.671-4.969,0.893-5.45,3.396l0,0
						c-0.436,2.265,0.962,4.48,3.194,5.062l11.365,2.965l4,7.833l-1.5,17l-11.919-15.169c-1.521-1.935-4.318-2.281-6.264-0.773l0,0
						c-1.796,1.392-2.265,3.909-1.09,5.854l8.106,13.421c-3.667,12.833-0.167,20.5,6.667,26l11,26.333
						C286.777,267.667,291.477,254.574,291.477,254.574z"/>
					<path style="fill:#FFFFFF;" d="M264.626,257.129c8.472-2.977,16.011-8.551,21.341-15.777l5.51,13.223l-4.2,14.342l-16.667-1.25
						L264.626,257.129z"/>
				</g>
				<g>
					<path style="fill:#585670;" d="M427.075,244.528L427.075,244.528c-15.467,1.147-30.221,6.964-42.309,16.682l-54.156,43.54
						l-40.75-62.25l0,0c-4.826,11.52-15.21,19.772-27.522,21.872l-2.728,0.465l47.305,72.115
						c8.391,12.793,25.725,16.064,38.202,7.21l56.556-40.134L427.075,244.528z"/>
					<path style="fill:#2B2A47;" d="M343.342,324.2l-12.733-19.45l2.084-1.676C344.485,304.5,343.342,324.2,343.342,324.2z"/>
					<path style="fill:#2B2A47;" d="M401.673,304.027l16.732-39.19c-22.461,15.497-23.045,34.587-20.79,42.07L401.673,304.027z"/>
				</g>
			</g>
			<g>
				<g>
					<polygon style="fill:#F0BF9C;" points="452.943,218.5 455.777,244.167 452.943,256 456.86,259.75 456.735,272.833 
						467.277,250.833 485.943,232.5 485.943,212.167 					"/>
					<path style="fill:#22213D;" d="M473.429,227.917c5.355-3.09,9.725-7.812,12.514-13.324v-2.426l-33,6.333l1.491,13.501
						C460.983,232.611,467.727,231.208,473.429,227.917z"/>
				</g>
				<polygon style="fill:#FFFFFF;" points="488.741,229.752 467.277,250.833 478.985,270.5 491.52,239.75 				"/>
				<polygon style="fill:#FFFFFF;" points="452.943,256 442.735,245 454.764,234.997 455.777,244.167 				"/>
				<polygon style="fill:#E4E4E0;" points="442.735,245 439.61,266.625 451.454,254.395 				"/>
			</g>
			<g>
				<path style="fill:#2B2A47;" d="M370.61,287l-0.227,0.976c-2.613,11.256-9.902,20.862-20.039,26.409l-1.734,0.949l6.375-20.208
					L370.61,287z"/>
				<g>
					<path style="fill:#F0BF9C;" d="M374.443,298.833l-10.167-11l-4.123-33.775c-0.136-1.117-0.646-2.156-1.446-2.948
						l-12.379-12.254c-1.682-1.665-4.3-1.923-6.274-0.618l-12.194,8.057c-1.688,1.115-2.119,3.405-0.953,5.058l0,0
						c1.061,1.503,3.087,1.959,4.69,1.055l10.178-5.742l4.5,4.833l-10.518,1.524c-2.451,0.355-4.363,2.303-4.672,4.76l-3.049,24.201
						c-0.262,2.076,0.677,4.121,2.421,5.277l3.769,2.497c2.177,1.442,5.073,1.123,6.883-0.759l0,0c2,5,8.5,7.875,8.5,7.875
						l12.25,17.875L374.443,298.833z"/>
					<path style="fill:#EBA588;" d="M330.794,260.101l-2.918-1.876c-2.589-1.665-6.054-0.533-7.162,2.339l0,0
						c-0.737,1.912-0.196,4.081,1.352,5.422l7.201,6.237L330.794,260.101z"/>
					<path style="fill:#FFFFFF;" d="M353.521,304.656c6.251-3.119,11.511-8.188,14.858-14.32l6.064,8.497L361.86,314.75
						L353.521,304.656z"/>
					<path style="fill:#EBA588;" d="M341.11,289l-7.375-8.5C332.922,286.25,338.047,289.5,341.11,289z"/>
				</g>
				<g>
					<path style="fill:#585670;" d="M496.726,265.273l-63.45,80.393L370.61,287l-0.227,0.976
						c-2.613,11.256-9.902,20.862-20.039,26.409l-1.734,0.949l64.666,68.411c11.656,12.331,31.367,12.044,42.659-0.62l77.566-86.991
						c8.903-9.985,7.931-25.319-2.162-34.1h0C520.993,253.032,505.222,254.508,496.726,265.273z"/>
					<path style="fill:#484760;" d="M420.203,377.896l-63.852-67.55c-1.867,1.508-3.869,2.868-6.007,4.038l-1.734,0.949
						l64.666,68.411c11.656,12.331,31.367,12.044,42.659-0.62l0.308-0.345C444.912,389.645,429.818,388.068,420.203,377.896z"/>
					<path style="fill:#2B2A47;" d="M448.982,360.37l-15.705-14.703l1.418-1.797C446.235,343.125,448.354,352.739,448.982,360.37z"
						/>
				</g>
			</g>
			<g>
				<path style="fill:#F0BF9C;" d="M422.677,167.643l1.974,26.315c1.387,18.494,16.797,32.792,35.344,32.792l0,0
					c17.908,0,33.002-13.358,35.18-31.133l3.209-26.193c2.778-22.678-14.917-42.673-37.765-42.673h0
					C438.483,126.75,421.021,145.571,422.677,167.643z"/>
				<path style="fill:#22213D;" d="M492.96,198.983c-5.796-6.847-7.672-16.8-4.766-25.287c-8.313-7.464-12.956-18.778-10.499-29.677
					c-5.868,6.884-14.77,11.267-23.42,13.914c-8.649,2.648-17.73,3.543-26.755,4.149c-4.612,0.309-9.272,0.545-13.833-0.207
					c-2.094-13.318,4.497-27.709,14.702-36.52c10.205-8.811,23.707-13.103,37.138-14.273c5.624-0.49,11.44-0.446,16.717,1.56
					c5.277,2.006,9.955,6.286,11.172,11.799c6.166-3.441,15.128-0.725,19.612,4.73c4.484,5.455,5.678,12.998,4.996,20.026
					c-0.682,7.028-3.034,13.767-4.945,20.565c-1.911,6.798-3.399,13.914-2.302,20.89L492.96,198.983z"/>
				<path style="fill:#43415A;" d="M513.027,129.171c-4.484-5.455-13.446-8.172-19.612-4.73c-1.217-5.513-5.895-9.793-11.172-11.799
					c-5.277-2.006-11.093-2.05-16.717-1.56c-13.431,1.171-26.933,5.463-37.138,14.273c-4.21,3.634-7.788,8.226-10.412,13.293
					c0.46,1.903,1.349,3.691,2.684,5.139c4.544,4.928,12.165,5.25,18.823,4.472c18.673-2.182,36.591-10.414,50.411-23.158
					c-1.471,5.271-3.545,11.205-2.709,16.613c0.836,5.408,3.357,10.67,7.572,14.16c4.215,3.49,10.211,4.978,15.379,3.18
					c2.892-1.006,5.316-2.938,7.22-5.345c0.282-1.494,0.518-2.995,0.665-4.512C518.705,142.169,517.511,134.627,513.027,129.171z"/>
				<g>
					<g>
						<g>
							<path style="fill:#56438C;" d="M474.11,160.391h-21.491c4.418,0,8,3.582,8,8v20.943c0,4.418-3.582,8-8,8h21.491
								c4.418,0,8-3.582,8-8v-20.943C482.11,163.972,478.528,160.391,474.11,160.391z"/>
							<path style="fill:#6C6FC3;" d="M460.619,189.333v-20.943c0-4.418-3.582-8-8-8h-43.342c-4.418,0-8,3.582-8,8v20.943
								c0,4.418,3.582,8,8,8h43.342C457.037,197.333,460.619,193.752,460.619,189.333z"/>
						</g>
						<path style="fill:#FFFFFF;" d="M410.235,172.375L410.235,172.375c-2.002,0-3.625-1.623-3.625-3.625l0,0
							c0-2.002,1.623-3.625,3.625-3.625l0,0c2.002,0,3.625,1.623,3.625,3.625l0,0C413.86,170.752,412.237,172.375,410.235,172.375z"
							/>
						<path style="fill:#FFFFFF;" d="M410.235,192.417L410.235,192.417c-2.002,0-3.625-1.623-3.625-3.625v-9
							c0-2.002,1.623-3.625,3.625-3.625l0,0c2.002,0,3.625,1.623,3.625,3.625v9C413.86,190.794,412.237,192.417,410.235,192.417z"/>
					</g>
					<polygon style="fill:#402C49;" points="512.333,184.194 477.443,184.194 477.443,173.53 513.777,173.53 					"/>
				</g>
				<g>
					<path style="fill:#F0BF9C;" d="M493.519,187.705c1.804-2.868,4.889-4.96,8.258-5.321c3.369-0.36,6.935,1.122,8.859,3.912
						c1.341,1.946,1.847,4.396,1.66,6.752c-0.186,2.356-1.029,4.625-2.181,6.688c-1.102,1.973-2.511,3.803-4.315,5.164
						c-1.804,1.361-4.026,2.228-6.285,2.186c-2.259-0.042-4.534-1.058-5.881-2.872c-1.315-1.772-1.715-4.13-1.947-6.276
						c-0.233-2.16-0.281-4.354,0.247-6.475C492.264,190.139,492.792,188.862,493.519,187.705z"/>
					<path style="fill:#EBA588;" d="M505.499,187.807c-2.202,0.303-4.286,1.397-5.786,3.037c-1.5,1.64-2.404,3.813-2.509,6.033
						c-0.057,1.188,0.127,2.432,0.794,3.416c0.668,0.985,1.897,1.645,3.06,1.394c0.991-0.214,1.757-1.028,2.23-1.925
						c0.703-1.334,0.869-3.004,0.186-4.348c-0.684-1.344-2.311-2.219-3.762-1.807C500.754,191.249,503.059,188.643,505.499,187.807z
						"/>
				</g>
				<path style="fill:#FFFFFF;" d="M469.364,203.747c-10.612,0.258-21.224,0.516-31.837,0.775c2.851,5.745,9.201,9.408,15.613,9.296
					C459.552,213.706,466.19,209.32,469.364,203.747z"/>
				<path style="fill:#EBA588;" d="M474.11,197.333h-49.043c3.319,2.015,7.268,3.127,11.112,3.673
					C448.594,202.769,462.142,201.079,474.11,197.333z"/>
			</g>
		</g>
		<g>
			<path style="fill:#AAF1FA;" d="M228.61,153.903V142.5h-44V90.334h-7.667V142.5H158.11v11.403h-24.5V162v2v37.167v2v2.602v2
				v31.431v2v2.602v2v31.431v2v2.602v2v31.432v2v2.602v2v31.431v2v2.602v2v31.432v2v2.602v2v31.431v2v2.602v2v13.911h49h2h44
				v-13.911v-2v-2.602v-2v-0.886h4.592v-22.068h-4.592v-8.477v-2v-2.602v-2v-4.321h4.592V364.94h-4.592v-5.042v-2v-2.602v-2v-7.755
				h4.592v-22.069h-4.592v-1.606v-2v-2.602v-2v-11.19h24.273v-20.241v-2v-2.602v-2v-31.431v-2v-2.602v-2v-31.431v-2v-2.602v-2V164
				v-2v-8.097H228.61z M226.61,144.5v9.403h-42V144.5H226.61z M178.943,92.334h3.667V142.5h-3.667V92.334z M160.11,144.5h16.833
				h5.667v9.403h-22.5V144.5z M135.61,155.903h22.5h24.5V162h-47V155.903z M135.61,164h47v37.167h-47V164z M135.61,203.167h47v2.602
				h-47V203.167z M135.61,207.768h47v31.431h-47V207.768z M135.61,241.199h47v2.602h-47V241.199z M135.61,245.801h47v31.431h-47
				V245.801z M135.61,279.231h47v2.602h-47V279.231z M135.61,283.833h47v31.432h-47V283.833z M135.61,317.265h47v2.602h-47V317.265z
				 M135.61,321.866h47v31.431h-47V321.866z M135.61,355.297h47v2.602h-47V355.297z M135.61,359.898h47v31.432h-47V359.898z
				 M135.61,393.33h47v2.602h-47V393.33z M135.61,397.932h47v31.431h-47V397.932z M135.61,431.362h47v2.602h-47V431.362z
				 M182.61,447.875h-47v-11.911h47V447.875z M226.61,447.875h-42v-11.911h42V447.875z M226.61,433.964h-42v-2.602h42V433.964z
				 M231.202,408.408v18.068h-4.592v2.886h-42v-31.431h42v10.477H231.202z M226.61,395.932h-42v-2.602h42V395.932z M231.202,366.94
				v18.068h-4.592v6.321h-42v-31.432h42v7.042H231.202z M226.61,357.898h-42v-2.602h42V357.898z M231.202,325.473v18.069h-4.592
				v9.755h-42v-31.431h42v3.606H231.202z M226.61,319.866h-42v-2.602h42V319.866z M250.883,302.074H226.61v13.19h-42v-31.432h66.273
				V302.074z M250.883,281.833H184.61v-2.602h66.273V281.833z M250.883,277.231H184.61v-31.431h66.273V277.231z M250.883,243.801
				H184.61v-2.602h66.273V243.801z M250.883,239.199H184.61v-31.431h66.273V239.199z M250.883,205.768H184.61v-2.602h66.273V205.768
				z M250.883,201.167H184.61V164h66.273V201.167z M184.61,162v-6.097h44h22.273V162H184.61z"/>
			<path style="opacity:0.6;fill:#AAF1FA;" d="M265.381,110.822h-61.333c-1.657,0-3-1.343-3-3V70.333c0-1.657,1.343-3,3-3h61.333
				c1.657,0,3,1.343,3,3v37.489C268.381,109.479,267.038,110.822,265.381,110.822z"/>
			<path style="opacity:0.6;fill:#AAF1FA;" d="M305.047,133.667h-46.333c-1.657,0-3-1.343-3-3v-27c0-1.657,1.343-3,3-3h46.333
				c1.657,0,3,1.343,3,3v27C308.047,132.324,306.704,133.667,305.047,133.667z"/>
			<g>
				<rect x="318.11" y="138.167" style="fill:#FFFFFF;" width="48.167" height="3.833"/>
				<rect x="318.11" y="148.292" style="fill:#FFFFFF;" width="27.25" height="3.833"/>
				<rect x="351.579" y="148.292" style="fill:#FFFFFF;" width="14.698" height="3.833"/>
				<rect x="318.11" y="158.417" style="fill:#FFFFFF;" width="10.625" height="3.833"/>
				<rect x="336.881" y="158.417" style="fill:#FFFFFF;" width="29.396" height="3.833"/>
				<rect x="341.237" y="189.023" style="fill:#FFFFFF;" width="36.745" height="3.833"/>
				<rect x="352.769" y="197.873" style="fill:#FFFFFF;" width="25.213" height="3.833"/>
				<rect x="341.237" y="225.798" style="fill:#FFFFFF;" width="36.745" height="3.833"/>
				<rect x="341.237" y="234.649" style="fill:#FFFFFF;" width="36.745" height="3.833"/>
				<rect x="352.769" y="243.499" style="fill:#FFFFFF;" width="25.213" height="3.833"/>
			</g>
			<g>
				<rect x="54.443" y="243.755" style="fill:#AAF1FA;" width="48.167" height="3.833"/>
				<rect x="75.36" y="253.88" style="fill:#AAF1FA;" width="27.25" height="3.833"/>
				<rect x="54.443" y="253.88" style="fill:#AAF1FA;" width="14.698" height="3.833"/>
				<rect x="54.443" y="264.005" style="fill:#AAF1FA;" width="10.625" height="3.833"/>
				<rect x="73.214" y="264.005" style="fill:#AAF1FA;" width="29.396" height="3.833"/>
				<rect x="54.443" y="274.255" style="fill:#AAF1FA;" width="31.25" height="3.833"/>
				<rect x="54.443" y="285.022" style="fill:#AAF1FA;" width="25.214" height="3.833"/>
				<rect x="54.443" y="306.455" style="fill:#AAF1FA;" width="36.745" height="3.833"/>
				<rect x="54.443" y="315.305" style="fill:#AAF1FA;" width="36.745" height="3.833"/>
				<rect x="54.443" y="324.155" style="fill:#AAF1FA;" width="25.214" height="3.833"/>
			</g>
			<g>
				<g>
					<polygon style="fill:#FFFFFF;" points="121.11,435.271 110.36,435.271 110.36,136.473 121.11,136.473 121.11,138.473 
						112.36,138.473 112.36,433.271 121.11,433.271 					"/>
				</g>
				<g>
					<rect x="104.943" y="287.855" style="fill:#FFFFFF;" width="6.417" height="2"/>
				</g>
			</g>
			<path style="fill:#F4D071;" d="M379.11,325.473v-23.398h-34.667V288.75v-2v-6.25H311.86h-1.25v-40.167h-5.5V280.5h-8.75v-40.167
				h-5.5V280.5h-28.5v6.25v2v13.324h-35.75v23.398h4.592v18.069h-4.592v23.398h4.592v18.068h-4.592v23.399h4.592v18.068h-4.592
				v23.398h92.778h2h57.722v-23.398h-4.592v-18.068h4.592v-23.399h-4.592V366.94h4.592v-23.398h-4.592v-18.069H379.11z
				 M377.11,304.074v19.398h-2.592h-53.13v-19.398h23.055H377.11z M342.443,302.074h-21.055h-2h-7.528V288.75h30.583V302.074z
				 M311.86,282.5h30.583v4.25H311.86V282.5z M307.11,242.333h1.5V280.5h-1.5V242.333z M292.86,242.333h1.5V280.5h-1.5V242.333z
				 M264.36,282.5h26.5h5.5h8.75h4.75v4.25h-45.5V282.5z M264.36,288.75h45.5v13.324h-45.5V288.75z M228.61,323.473v-19.398h33.75
				h47.5h2h7.528v19.398h-88.186H228.61z M233.202,325.473h86.186v18.069h-86.186V325.473z M228.61,364.94v-19.398h2.592h88.186
				v19.398h-88.186H228.61z M233.202,366.94h86.186v18.068h-86.186V366.94z M228.61,406.408v-19.399h2.592h88.186v19.399h-88.186
				H228.61z M233.202,408.408h86.186v18.068h-86.186V408.408z M319.388,447.875H228.61v-19.398h2.592h88.186V447.875z
				 M377.11,428.477v19.398h-55.722v-19.398h53.13H377.11z M372.518,426.477h-51.13v-18.068h51.13V426.477z M377.11,387.009v19.399
				h-2.592h-53.13v-19.399h53.13H377.11z M372.518,385.009h-51.13V366.94h51.13V385.009z M377.11,345.542v19.398h-2.592h-53.13
				v-19.398h53.13H377.11z M372.518,343.542h-51.13v-18.069h51.13V343.542z"/>
			<g>
				<rect x="96.61" y="92.334" style="opacity:0.2;fill:#FFFFFF;" width="11.542" height="11.542"/>
				<rect x="118.86" y="103.875" style="opacity:0.2;fill:#FFFFFF;" width="6.947" height="6.947"/>
				<rect x="137.36" y="83" style="opacity:0.2;fill:#FFFFFF;" width="8.5" height="8.5"/>
				<rect x="149.11" y="98.104" style="opacity:0.2;fill:#FFFFFF;" width="3.823" height="3.823"/>
				<rect x="159.11" y="74.75" style="opacity:0.2;fill:#FFFFFF;" width="12.5" height="12.5"/>
				<rect x="73.214" y="131.667" style="opacity:0.2;fill:#FFFFFF;" width="16.625" height="16.625"/>
				<rect x="65.068" y="144.5" style="opacity:0.2;fill:#FFFFFF;" width="11.875" height="11.875"/>
				<rect x="76.943" y="189.023" style="opacity:0.2;fill:#FFFFFF;" width="9.155" height="9.155"/>
				<rect x="365.375" y="79" style="opacity:0.2;fill:#FFFFFF;" width="19.104" height="19.104"/>
				<rect x="396.74" y="91.5" style="opacity:0.2;fill:#FFFFFF;" width="8.516" height="8.516"/>
				<rect x="379.11" y="93.75" style="opacity:0.2;fill:#FFFFFF;" width="20.5" height="20.5"/>
				<rect x="425.067" y="60" style="opacity:0.2;fill:#FFFFFF;" width="9.5" height="9.5"/>
				<rect x="446.61" y="75" style="opacity:0.2;fill:#FFFFFF;" width="6.009" height="6.009"/>
				<rect x="489.11" y="56" style="opacity:0.2;fill:#FFFFFF;" width="11.333" height="11.333"/>
				<rect x="539.592" y="91.5" style="opacity:0.2;fill:#FFFFFF;" width="9.167" height="9.167"/>
				<rect x="548.61" y="184.292" style="opacity:0.2;fill:#FFFFFF;" width="15.708" height="15.708"/>
				<rect x="557.86" y="192.856" style="opacity:0.2;fill:#FFFFFF;" width="12.697" height="12.697"/>
				<rect x="556.464" y="170" style="opacity:0.2;fill:#FFFFFF;" width="6.167" height="6.167"/>
				<rect x="531.36" y="168.75" style="opacity:0.2;fill:#FFFFFF;" width="4.333" height="4.333"/>
			</g>
		</g>
	</g>
</g>
</svg>
